<svg id="Layer_1" enable-background="new 0 0 105 105" viewBox="0 0 105 105" xmlns="http://www.w3.org/2000/svg"><g><g><g><g><g><path d="m87.5243759 12.4046278v74.8512392c0 4.3140182-3.506958 7.8205032-7.8208618 7.8205032h-57.8346291c-4.3140182 0-7.8209829-3.506485-7.8209829-7.8205032v-56.5098495c0-1.1256924.249073-2.2314396.7173004-3.2379456.3687449-.8469448.9066591-1.614109 1.5642443-2.2815456l18.3615818-18.3516069c.6675568-.6674371 1.4446945-1.2054734 2.2915154-1.5742178 1.0062637-.4679847 2.112133-.7170572 3.2379494-.7170572h39.4830208c4.3139037 0 7.8208617 3.5069642 7.8208617 7.8209834z" fill="#fff"/></g></g><g><g><path d="m87.5254135 12.3998718v74.8529968c0 4.3172379-3.506485 7.8235016-7.8236084 7.8235016h-57.8293648c-4.3171215 0-7.8236132-3.5062637-7.8236132-7.8235016v-11.3868331c6.7867632 8.6533508 15.9396086 13.950943 25.9972076 13.950943 20.9542542 0 37.9401474-22.9812393 37.9401474-51.3350945 0-12.9889965-3.5631027-24.8563385-9.4449921-33.8963051h11.160614c4.3171245-.0000005 7.8236095 3.5067206 7.8236095 7.8142929z" fill="#ddd"/></g></g><g><g><path d="m36.9825439 5.3007016v18.3019867c0 2.1618748-1.7435074 3.9053841-3.9053841 3.9053841h-18.3119573c.3687449-.8469448.9066591-1.614109 1.5642443-2.2815456l18.3615818-18.3516074c.6675568-.6674371 1.4446945-1.2054734 2.2915153-1.5742178z" fill="#c3c9fb"/></g></g><g><g><path d="m36.9825439 5.3022032v18.3055725c0 2.1552525-1.7471771 3.9024296-3.9024277 3.9024296h-18.315009c.3677473-.848259.9049864-1.6118298 1.5648832-2.2810478l.3958244-.3958244h.5057487c8.9559517 0 16.2161865-7.2602329 16.2161865-16.2161846v-.4967738l1.2443123-1.2440825c.6692162-.6692176 1.4422227-1.2063412 2.2904816-1.574089z" fill="#8693e2"/></g></g><g><g><path d="m29.0870285 7.5706787c-.1918945 0-.3837891-.0732422-.5302734-.2197266-.2929688-.2929688-.2929688-.7678223 0-1.060791l.9833984-.9829102c.2929688-.2924805.7675781-.2927246 1.0605469.0002441s.2929688.7678223 0 1.060791l-.9833984.9829102c-.1464844.1462403-.338379.2194825-.5302735.2194825z" fill="#0f0f0f"/></g></g><g><g><path d="m13.4805832 23.1690674c-.1918945 0-.3837891-.0732422-.5302734-.2197266-.2929688-.2929688-.2929688-.7678223 0-1.060791l13.0888671-13.0822754c.2929688-.2924805.7675781-.2927246 1.0605469.0002441s.2929688.7678223 0 1.060791l-13.0888672 13.0822755c-.1464843.1462402-.3383789.2194824-.5302734.2194824z" fill="#0f0f0f"/></g></g><g><g><path d="m79.7037277 95.8262939h-57.8349609c-4.7260742 0-8.5708008-3.8447266-8.5708008-8.5703125v-56.5100097c0-1.2182617.2724609-2.4472656.7871094-3.5541992.3881836-.8920898.9658203-1.736084 1.7099609-2.4914551l18.3657227-18.355957c.7436523-.7436523 1.5922852-1.3261719 2.5219727-1.7312012 1.0908203-.5073242 2.3193359-.779541 3.5375977-.779541h39.4833984c4.7260742 0 8.5708008 3.8449707 8.5708008 8.5710449v74.8513184c-.0000001 4.7255859-3.8447267 8.5703124-8.5708009 8.5703124zm-39.4833984-90.4926757c-1.0009766 0-2.0112305.223877-2.9213867.6472168-.7739258.3371582-1.4672852.8139648-2.0776367 1.4243164l-18.3618165 18.3518066c-.6098633.6193848-1.0844727 1.310791-1.4067383 2.0505371-.4311523.9272461-.6547852 1.9372559-.6547852 2.9384766v56.5100098c0 3.8986816 3.171875 7.0703125 7.0708008 7.0703125h57.8349609c3.8989258 0 7.0708008-3.1716309 7.0708008-7.0703125v-74.8513184c0-3.8989258-3.171875-7.0710449-7.0708008-7.0710449z" fill="#0f0f0f"/></g></g><g><g><path d="m33.0772629 28.2581787h-18.3120117c-.2529297 0-.4887695-.1274414-.6274414-.3388672s-.1611328-.4785156-.0600586-.7104492c.3955078-.9091797.9731445-1.7531738 1.7172852-2.5085449l18.3657226-18.355957c.7436523-.7436523 1.5922852-1.3261719 2.5219727-1.7312012.2329102-.1005859.5-.0778809.7109375.0600586.2114258.1386719.3388672.3745117.3388672.6274414v18.302002c-.0000001 2.5671386-2.088379 4.6555175-4.6552735 4.6555175zm-17.0434571-1.5h17.043457c1.7397461 0 3.1552734-1.4155273 3.1552734-3.1555176v-17.0356445c-.3574219.2424316-.6953125.5224609-1.0112305.8381348l-18.3618163 18.3518066c-.3115234.3161621-.5874023.6508789-.8256836 1.0012207z" fill="#0f0f0f"/></g></g></g><g><g><g><g><path d="m57.7054024 49.7941513c.3183823 0 .6296349.0276146.9430733.0474091v-9.1812668c0-2.3164902-1.8757896-4.1920471-4.1925087-4.1920471h-21.1780587c-2.3166027 0-4.1925068 1.8755569-4.1925068 4.1920471v21.1784019c0 2.3164864 1.8759041 4.1925087 4.1925068 4.1925087h9.7194252c-.0467148-.4791336-.07341-.9642487-.07341-1.4558029 0-8.1636314 6.6178474-14.78125 14.7814789-14.78125z" fill="#ff84a0"/></g></g><g><g><path d="m58.6475525 40.659832v9.1808052c-.3111343-.0188713-.6222725-.0474052-.9426117-.0474052-8.1631699 0-14.7802124 6.6176186-14.7802124 14.7803307 0 .4901733.0281906.9803467.075367 1.461319h-9.7183876c-2.3187904 0-4.1945801-1.8760147-4.1945801-4.1948051v-6.2871513c1.2348766.2167816 2.5262527.3300056 3.845932.3300056 9.3506432 0 16.9292831-5.6653404 16.9292831-12.6502457 0-2.4978294-.961483-4.8166199-2.6299286-6.767662h7.2204437c2.3189049-.0000002 4.1946946 1.8755606 4.1946946 4.1948088z" fill="#f76189"/></g></g><g><g><path d="m58.6484756 49.8415604v11.9971352c0 2.3164864-1.8757896 4.1925087-4.1925087 4.1925087h-11.4586334c.7315826 7.4796829 7.035881 13.3259048 14.7080688 13.3259048 8.1636314 0 14.7814751-6.6180801 14.7814751-14.7817078 0-7.8451309-6.1166229-14.2450447-13.8384018-14.7338409z" fill="#ffd9b0"/></g></g><g><g><path d="m72.4850388 64.5735626c0 8.1631699-6.617157 14.7803268-14.780098 14.7803268-5.5897408 0-10.4536552-3.1012344-12.9609184-7.6821976 2.102005.8013077 4.4302292 1.2440796 6.871563 1.2440796 9.6241531 0 17.4383316-6.8624802 17.4383316-15.3174515 0-.961483-.1036758-1.9040947-.30159-2.818634 2.3282318 2.6018525 3.7327118 6.0330888 3.7327118 9.7938767z" fill="#edb57e"/></g></g><g><g><path d="m58.6484756 61.8386955v-11.9971351c-.3134384-.0197945-.624691-.0474091-.9430733-.0474091-8.1636314 0-14.7814789 6.6176186-14.7814789 14.78125 0 .4915543.0266953.9766693.07341 1.4558029h11.4586334c2.3167192 0 4.1925088-1.8760223 4.1925088-4.1925087z" fill="#aff2b6"/></g></g><g><g><path d="m58.6475525 49.8406372v11.9994392c0 2.3187904-1.8757896 4.1948051-4.1946945 4.1948051h-11.4527626c-.0471764-.4809723-.075367-.9711456-.075367-1.461319 0-.5656662.0281906-1.1308632.0942383-1.6776505h7.8237267c2.3187904 0 4.1945801-1.8760185 4.1945801-4.194809v-8.6625519c.8671303-.1601715 1.7532463-.2453194 2.6676674-.2453194.3203391.0000003.6314773.0285342.9426116.0474055z" fill="#7fd685"/></g></g></g><g><g><g><path d="m42.9971848 66.7811279h-9.7192383c-2.7250977 0-4.9423828-2.217041-4.9423828-4.9423828v-21.1784668c0-2.7250977 2.2172852-4.9421387 4.9423828-4.9421387h21.1782227c2.7250977 0 4.9423828 2.217041 4.9423828 4.9421387v9.1813965c0 .2072754-.0859375.4052734-.2368164.546875-.1513672.1420898-.3530273.215332-.5610352.2016602l-.2060547-.013916c-.2285156-.0158691-.4570313-.0322266-.6894531-.0322266-7.7368164 0-14.03125 6.2944336-14.03125 14.03125 0 .4462891.0229492.8989258.0698242 1.3835449.0205078.2104492-.0493164.4199219-.1914063.576416s-.34375.2458496-.5551757.2458496zm-9.7192383-29.5629883c-1.8979492 0-3.4423828 1.5441895-3.4423828 3.4421387v21.1784668c0 1.8981934 1.5444336 3.4423828 3.4423828 3.4423828h8.9130859c-.0117188-.2382813-.0170898-.4726563-.0170898-.7058105 0-8.5639648 6.9672852-15.53125 15.53125-15.53125.0649414 0 .1289063.0009766.1933594.0029297v-8.3867188c0-1.8979492-1.5444336-3.4421387-3.4423828-3.4421387z" fill="#0f0f0f"/></g></g><g><g><path d="m57.7051926 80.1070557c-8.0292969 0-14.6733398-6.0200195-15.4545898-14.0029297-.0205078-.2104492.0488281-.420166.190918-.5769043s.3442383-.2460938.5556641-.2460938h11.4589844c1.8979492 0 3.4423828-1.5441895 3.4423828-3.4423828v-11.9970703c0-.2070313.0854492-.4050293.2368164-.546875.1508789-.1416016.3569336-.2141113.5605469-.2016602 8.1538086.5161133 14.5410156 7.3166504 14.5410156 15.4821777-.0000002 8.5642091-6.9672853 15.5317384-15.5317384 15.5317384zm-13.8569336-13.3259278c1.0639648 6.7980957 6.8818359 11.8259277 13.8569336 11.8259277 7.7373047 0 14.0317383-6.2946777 14.0317383-14.0317383 0-7.107666-5.3579102-13.0703125-12.3383789-13.9118652v11.175293c0 2.7253418-2.2172852 4.9423828-4.9423828 4.9423828z" fill="#0f0f0f"/></g></g><g><g><path d="m54.4561691 66.7811279h-11.4589843c-.3862305 0-.7094727-.2932129-.746582-.6777344-.0517578-.5332031-.0766602-1.032959-.0766602-1.5280762 0-8.5639648 6.9672852-15.53125 15.53125-15.53125.2670898 0 .5297852.0175781.7929688.0356445l.1982422.0134277c.3950195.0253906.7021484.3527832.7021484.7485352v11.9970703c-.0000001 2.7253419-2.2172852 4.9423829-4.9423829 4.9423829zm-10.7636718-1.5h10.7636719c1.8979492 0 3.4423828-1.5441895 3.4423828-3.4423828v-11.2912597c-.0639648-.0021973-.128418-.003418-.1933594-.003418-7.7368164 0-14.03125 6.2944336-14.03125 14.03125 0 .2324219.0063476.4663086.0185547.7058105z" fill="#0f0f0f"/></g></g></g></g><g><g><g><g><g><g><path d="m64.3934402 42.331955 11.8660202-5.0281906 6.1773224 4.4607048-1.0476227 12.841114c-.1450729 1.7788582-1.6572723 3.1724663-3.4398804 3.0849075-4.7098923-.2313194-9.8186722 1.3604431-12.2745972 2.2543182-.6953201.2530556-1.4226913-.2717056-1.4017105-1.0113678.0740128-2.6131439-.0255127-7.9654007-1.7272758-12.3644791-.6442756-1.6654777.2034989-3.5403403 1.847744-4.237007z" fill="#5b5476"/></g></g><g><g><path d="m64.3966446 42.3310738 11.861908-5.0238991 6.1787872 4.4517784-.1696854 2.0676041c-3.48452-2.5203705-8.0332489-3.0351601-11.9928665-1.3573799l-5.4894104 2.3259506c-1.0566978.4466782-1.7851906 1.3830719-1.9947014 2.4439964-.081131-.2286644-.1569672-.4505463-.2448997-.6737938-.6458626-1.6579666.2040977-3.5323753 1.8508682-4.2342567z" fill="#3f3b5b"/></g></g><g><g><path d="m69.9307098 49.0484886c.6681976-.9254227 1.9562073-1.1290169 2.8766556-.4642906.9203873.6646576 1.1323471 1.9513359.4641037 2.8766899-.6645432.9204063-1.956131 1.1288414-2.8765182.4641838-.9205094-.6646766-1.1288987-1.956192-.4642411-2.8765831z" fill="#fff"/></g></g><g><g><path d="m74.6093674 33.1872749c.7667618-1.0618439 2.249054-1.3010216 3.3108444-.5343285l8.4014816 6.0668221c1.0617905.7666931 1.3010254 2.2490578.5342789 3.3107834-.7667007 1.0617943-2.2490616 1.3010254-3.3107834.5342751l-8.4015503-6.0667686c-1.0617905-.7666932-1.300972-2.2489892-.5342712-3.3107835z" fill="#dabcbc"/></g></g><g><g><path d="m77.9238586 32.6553993 8.3969727 6.0604973c1.0649796.768425 1.3016815 2.2486534.5331573 3.3134995-.1326752.1900864-.2916412.3466377-.4662704.4829903-.2416611.1886902-.506752.3200989-.7900238.4005203.6326218-1.04533.369278-2.407238-.6401825-3.1325226l-8.3971786-6.0603409c-.6189194-.4465141-1.376091-.5580482-2.0573196-.3503723.0259171-.063591.0639191-.1256943.1072235-.1811333.7686004-1.0648994 2.2486037-1.3017483 3.3136214-.5331383z" fill="#bc9595"/></g></g><g><g><path d="m91.041893 14.1569796-13.3950195 18.3018064 8.9450455 6.4591942 13.3710632-18.2235374c1.8029022-2.4571877 1.2779236-5.9098663-1.1738434-7.7201357l-.0000076-.0000067c-2.464264-1.819499-5.9380875-1.2891922-7.7472382 1.1826792z" fill="#c3c9fb"/></g></g><g><g><path d="m77.6463852 32.4560394 13.3928528-18.2976179c1.8058548-2.4691477 5.2661133-2.9999256 7.7216568-1.2040195l.0275421.0201416c2.4525223 1.8143139 2.9812851 5.2630529 1.1734619 7.7204485l-13.3680649 18.2203827z" fill="#abecef"/></g></g><g><g><path d="m77.6463852 32.4560394 13.3928528-18.2976179c1.7154617-2.3455563 4.9279327-2.9415741 7.3541565-1.452179-.9928207.3615656-1.8916168 1.013051-2.5607071 1.9278984l-9.3211899 12.7348204c-2.241684 3.0626431-1.5614243 7.3647957 1.5158157 9.5864067v.0000038l-1.4334793 1.9600029z" fill="#75c5c9"/></g></g><g><g><path d="m65.3150558 60.7584229c-.3720703 0-.7392578-.1154785-1.0488281-.3388672-.4819336-.3479004-.7597656-.911377-.7426758-1.5073242.0756836-2.6933594-.0410156-7.8432617-1.6777344-12.0725098-.7768555-2.0102539.234375-4.3422852 2.2553711-5.1984863l11.8657227-5.0280762c.2407227-.1018066.5185547-.0710449.7314453.0825195l6.1772461 4.4606934c.2128906.1538086.3300781.4074707.3085938.6691895l-1.0473633 12.8410644c-.1782227 2.1860352-2.1010742 3.8740234-4.2241211 3.7729492-4.5341797-.2211914-9.4511719 1.2890625-11.9814453 2.2099609-.2006836.0729981-.4091797.1088868-.616211.1088868zm10.8476563-22.5991211-11.4765625 4.8632812c-1.2827148.543457-1.9291992 2.0131836-1.440918 3.2758789 1.730957 4.4743652 1.8569336 9.8500977 1.7773438 12.65625-.0039063.137207.0742188.2145996.121582.2485352.046875.0336914.1425781.0844727.2744141.0366211 2.6362305-.9594727 7.7758789-2.5336914 12.5673828-2.2983398 1.3500977.0671387 2.5424805-1.0087891 2.6557617-2.3969727l1.0131836-12.4194336zm-11.769043 4.1726074h.0097656z" fill="#0f0f0f"/></g></g><g><g><path d="m84.9268723 43.7645264c-.6503906 0-1.2832031-.2033691-1.8208008-.5915527l-8.4013672-6.0666504c-1.3955078-1.0075684-1.7109375-2.9624023-.703125-4.3579102.487793-.6760254 1.2099609-1.121582 2.0332031-1.2543945.8203125-.1323242 1.6479492.0625 2.3242188.5510254l8.4018555 6.0666504c1.3955078 1.0078125 1.7109375 2.9626465.703125 4.3579102-.487793.6760254-1.2099609 1.1213379-2.0332031 1.2543945-.1684571.0270995-.3369142.0405273-.5039063.0405273zm-8.3916016-10.810791c-.0869141 0-.1743164.0070801-.2617188.0212402-.4272461.0688477-.8022461.300293-1.0561523.6513672-.5234375.7248535-.359375 1.7404785.3652344 2.2636719l8.4013672 6.0666504c.3510742.2539063.7817383.3566895 1.2080078.286377.4272461-.0690918.8027344-.300293 1.0561523-.6513672.5229492-.7248535.359375-1.7404785-.3652344-2.263916l-8.4018555-6.0666504c-.2792968-.2016603-.6079101-.3073731-.9458007-.3073731zm-1.9257813.2336425h.0097656z" fill="#0f0f0f"/></g></g><g><g><path d="m72.8067551 49.3341064c-.1523438 0-.3056641-.0461426-.4384766-.1418457-.3359375-.2426758-.4116211-.7114258-.1689453-1.0471191l6.5371094-9.0527344c.2426758-.3359375.7119141-.4108887 1.046875-.1691895.3359375.2426758.4116211.7114258.1689453 1.0471191l-6.5371094 9.0527344c-.1464844.2031251-.3759766.3110352-.6083984.3110352z" fill="#0f0f0f"/></g></g><g><g><path d="m71.5972824 53.0640869c-.5698242 0-1.1445313-.1723633-1.6411133-.5307617-.6079102-.4387207-1.0083008-1.0891113-1.128418-1.8312988-.1196289-.7416992.0561523-1.4851074.4951172-2.0925293.4399414-.6096191 1.0908203-1.0109863 1.8325195-1.1298828.7416992-.1196289 1.4833984.057373 2.0908203.4963379 1.2563477.9074707 1.5405273 2.6674805.6333008 3.9238281-.5483398.7600097-1.4096679 1.1643066-2.2822265 1.1643066zm.0063477-4.1203613c-.0698242 0-.1401367.0056152-.2104492.0168457-.3457031.0554199-.6489258.2426758-.8544922.5268555-.2041016.282959-.2856445.6293945-.2299805.9758301.0561523.3464355.2426758.6496582.5253906.8537598.5864258.4238281 1.4067383.2902832 1.8295898-.295166.4228516-.5859375.2900391-1.4067383-.2954102-1.829834-.2260741-.1628419-.4916991-.2482911-.7646483-.2482911zm-1.6728516.1047363h.0097656z" fill="#0f0f0f"/></g></g><g><g><path d="m86.591423 39.6680908c-.1523438 0-.3056641-.0461426-.4384766-.1418457l-8.9448242-6.4592285c-.1621094-.1169434-.2705078-.2937012-.3017578-.4909668s.0175781-.3989258.1357422-.5600586l13.3950195-18.302002c.9931641-1.357666 2.456543-2.2451172 4.1196289-2.4990234 1.6645508-.2546387 3.324707.1564941 4.6777344 1.1560059 2.7773438 2.0505371 3.3754883 5.9836426 1.3330078 8.7670898l-13.3710937 18.2236328c-.1464844.2001953-.3745117.3063965-.6049805.3063965zm-7.8935547-7.3754883 7.7294922 5.5817871 12.9311523-17.6235352c1.5541992-2.1188965 1.0991211-5.1123047-1.0146484-6.6733398-1.0302734-.7602539-2.293457-1.072998-3.5610352-.8796387-1.265625.1931152-2.3793945.8686523-3.1357422 1.9018555z" fill="#0f0f0f"/></g></g></g></g></g></g><g><g><g><path d="m20.7840023 54.6196289v43.0226822c0 1.6227798-1.310667 2.9433517-2.9333191 2.9433517h-9.7914152c-1.6226521 0-2.9333186-1.3205719-2.9333186-2.9433517v-43.0226822c0-1.6232872 1.3106666-2.9438591 2.9333186-2.9438591h9.7914152c1.6226521 0 2.9333191 1.3205719 2.9333191 2.9438591z" fill="#dabcbc"/></g></g><g><g><path d="m20.782568 93.302597v4.3367004c0 1.6295776-1.3061104 2.9463959-2.9361973 2.9463959h-9.790597c-1.6195006 0-2.925611-1.3168182-2.925611-2.9463959v-43.017971c0-1.6198807 1.3061104-2.9469109 2.925611-2.9469109h3.8870811c-2.3614578 4.3259811-3.8974133 11.2325478-3.8974133 19.0171738 0 13.1233444 4.3571024 23.7604904 9.7383032 23.7604904 1.0448877.0000001 2.0583993-.4076461 2.9988233-1.1494827z" fill="#bc9595"/></g></g><g><g><path d="m17.8502121 101.3311768h-9.7924805c-2.0317383 0-3.6850586-1.6567383-3.6850586-3.6933594v-43.015625c0-2.036377 1.6533203-3.6931152 3.6850586-3.6931152h9.7924805c2.0317383 0 3.6850586 1.6567383 3.6850586 3.6931152v43.015625c0 2.0366211-1.6533203 3.6933594-3.6850586 3.6933594zm-9.7924805-48.9020997c-1.2050781 0-2.1850586.9838867-2.1850586 2.1931152v43.015625c0 1.2094727.9799805 2.1933594 2.1850586 2.1933594h9.7924805c1.2050781 0 2.1850586-.9838867 2.1850586-2.1933594v-43.015625c0-1.2092285-.9799805-2.1931152-2.1850586-2.1931152z" fill="#0f0f0f"/></g></g><g><g><path d="m9.4410324 64.9737549h-4.3212891c-.4140625 0-.75-.3356934-.75-.75s.3359375-.75.75-.75h4.3212891c.4140625 0 .75.3356934.75.75s-.3359375.75-.75.75z" fill="#0f0f0f"/></g></g><g><g><path d="m8.0440598 71.0189209h-2.9243165c-.4140625 0-.75-.3356934-.75-.75s.3359375-.75.75-.75h2.9243164c.4140625 0 .75.3356934.75.75s-.3359374.75-.7499999.75z" fill="#0f0f0f"/></g></g><g><g><path d="m8.0440598 58.928833h-2.9243165c-.4140625 0-.75-.3356934-.75-.75s.3359375-.75.75-.75h2.9243164c.4140625 0 .75.3356934.75.75s-.3359374.75-.7499999.75z" fill="#0f0f0f"/></g></g><g><g><path d="m9.4410324 77.0638428h-4.3212891c-.4140625 0-.75-.3356934-.75-.75s.3359375-.75.75-.75h4.3212891c.4140625 0 .75.3356934.75.75s-.3359375.75-.75.75z" fill="#0f0f0f"/></g></g><g><g><path d="m8.0440598 83.1090088h-2.9243165c-.4140625 0-.75-.3356934-.75-.75s.3359375-.75.75-.75h2.9243164c.4140625 0 .75.3356934.75.75s-.3359374.75-.7499999.75z" fill="#0f0f0f"/></g></g><g><g><path d="m9.4410324 89.1539307h-4.3212891c-.4140625 0-.75-.3356934-.75-.75s.3359375-.75.75-.75h4.3212891c.4140625 0 .75.3356934.75.75s-.3359375.75-.75.75z" fill="#0f0f0f"/></g></g><g><g><path d="m8.0440598 95.1990967h-2.9243165c-.4140625 0-.75-.3356934-.75-.75s.3359375-.75.75-.75h2.9243164c.4140625 0 .75.3356934.75.75s-.3359374.75-.7499999.75z" fill="#0f0f0f"/></g></g><g><g><circle cx="15.318" cy="56.519" fill="#fff" r="1.659"/></g><g><path d="m15.3179855 58.928833c-1.3286133 0-2.4091797-1.0808105-2.4091797-2.4094238 0-1.3283691 1.0805664-2.4091797 2.4091797-2.4091797s2.4091797 1.0808105 2.4091797 2.4091797c0 1.3286133-1.0805664 2.4094238-2.4091797 2.4094238zm0-3.3186035c-.5014648 0-.9091797.407959-.9091797.9091797 0 .5014648.4077148.9094238.9091797.9094238s.9091797-.407959.9091797-.9094238c0-.5012207-.4077148-.9091797-.9091797-.9091797z" fill="#0f0f0f"/></g></g></g><g><g><g><path d="m96.3587646 66.4330597v31.0396194c0 1.5071411-1.2249832 2.7321243-2.7321243 2.7321243h-9.0200958c-1.5071411 0-2.7321243-1.2249832-2.7321243-2.7321243v-31.0396194c0-1.5071487 1.2249832-2.7321281 2.7321243-2.7321281h9.0200958c1.5071411-.0000001 2.7321243 1.2249793 2.7321243 2.7321281z" fill="#e8fafc"/></g></g><g><g><path d="m96.3587646 66.4330597v31.0396194c0 1.5071411-1.2249832 2.7321243-2.7321243 2.7321243h-9.0200958c-1.5071411 0-2.7321243-1.2249832-2.7321243-2.7321243v-3.8919983c1.1381607 2.5044937 2.5693436 4.0005188 4.1413345 4.0005188 3.7188873 0 6.7326431-8.4674149 6.7326431-18.9295425 0-6.0825653-1.0190582-11.4922943-2.6018982-14.9507256h3.4801407c1.5071411 0 2.7321243 1.2249794 2.7321243 2.7321282z" fill="#abecef"/></g></g><g><g><path d="m93.6265793 100.9547119h-9.0200195c-1.9199219 0-3.4819336-1.5620117-3.4819336-3.4819336v-31.0397949c0-1.9199219 1.5620117-3.4819336 3.4819336-3.4819336h9.0200195c1.9204102 0 3.4824219 1.5620117 3.4824219 3.4819336v31.0397949c0 1.9199219-1.5620118 3.4819336-3.4824219 3.4819336zm-9.0200195-36.5036621c-1.0927734 0-1.9819336.8891602-1.9819336 1.9819336v31.0397949c0 1.0927734.8891602 1.9819336 1.9819336 1.9819336h9.0200195c1.0932617 0 1.9824219-.8891602 1.9824219-1.9819336v-31.0397949c0-1.0927734-.8891602-1.9819336-1.9824219-1.9819336z" fill="#0f0f0f"/></g></g><g><g><g><path d="m85.482 75.121h7.269v6.832h-7.269z" fill="#ffd9b0"/></g></g><g><g><path d="m85.482 81.953h7.269v6.832h-7.269z" fill="#c3c9fb"/></g></g><g><g><path d="m92.7483978 69.4685211v5.6484756h-7.2638778v-5.6484756c0-.6506119.5203781-1.1815796 1.17099-1.1815796h4.9221649c.6503448 0 1.1707229.5309677 1.1707229 1.1815796z" fill="#ff84a0"/></g></g><g><g><path d="m85.48452 88.7882156h7.2638779v5.6490021c0 .6506119-.5203781 1.1815796-1.170723 1.1815796h-4.9221649c-.6506119 0-1.17099-.5309677-1.17099-1.1815796z" fill="#aff2b6"/></g></g></g><g><g><g><path d="m92.751091 82.7027588h-7.2685547c-.4140625 0-.75-.3356934-.75-.75v-6.831543c0-.4143066.3359375-.75.75-.75h7.2685547c.4140625 0 .75.3356934.75.75v6.831543c0 .4143066-.3359375.75-.75.75zm-6.5185547-1.5h5.7685547v-5.331543h-5.7685547z" fill="#0f0f0f"/></g></g><g><g><path d="m92.751091 89.5345459h-7.2685547c-.4140625 0-.75-.3356934-.75-.75v-6.8317871c0-.4143066.3359375-.75.75-.75h7.2685547c.4140625 0 .75.3356934.75.75v6.8317871c0 .4143066-.3359375.75-.75.75zm-6.5185547-1.5h5.7685547v-5.3317871h-5.7685547z" fill="#0f0f0f"/></g></g><g><g><path d="m92.7481613 75.8670654h-7.2636719c-.4140625 0-.75-.3356934-.75-.75v-5.6484375c0-1.0651855.8618164-1.9316406 1.9208984-1.9316406h4.9223633c1.059082 0 1.9204102.8664551 1.9204102 1.9316406v5.6484375c0 .4143067-.3359375.75-.75.75zm-6.5136719-1.5h5.7636719v-4.8984375c0-.2380371-.1884766-.4316406-.4204102-.4316406h-4.9223633c-.2319336 0-.4208984.1936035-.4208984.4316406z" fill="#0f0f0f"/></g></g><g><g><path d="m91.5777512 96.3687744h-4.9223633c-1.059082 0-1.9208984-.8664551-1.9208984-1.9316406v-5.6489258c0-.4143066.3359375-.75.75-.75h7.2636719c.4140625 0 .75.3356934.75.75v5.6489258c-.0000001 1.0651855-.8613282 1.9316406-1.9204102 1.9316406zm-5.3432618-6.8305664v4.8989258c0 .2380371.1889648.4316406.4208984.4316406h4.9223633c.2319336 0 .4204102-.1936035.4204102-.4316406v-4.8989258z" fill="#0f0f0f"/></g></g></g></g><g><g><path d="m60.3922043 99.4925537h-19.0834961c-.4140625 0-.75-.3356934-.75-.75s.3359375-.75.75-.75h19.0834961c.4140625 0 .75.3356934.75.75s-.3359375.75-.75.75z" fill="#0f0f0f"/></g></g><g><g><path d="m38.1422043 99.4925537h-1.5834961c-.4140625 0-.75-.3356934-.75-.75s.3359375-.75.75-.75h1.5834961c.4140625 0 .75.3356934.75.75s-.3359375.75-.75.75z" fill="#0f0f0f"/></g></g></g><g><g><g><path d="m99.7785568 54.7763901c0 1.8924904-1.5307541 3.4232445-3.416748 3.4232445-1.8923874 0-3.4231415-1.5307541-3.4231415-3.4232445 0-1.8858948 1.5307541-3.4166489 3.4231415-3.4166489 1.8859939 0 3.416748 1.5307541 3.416748 3.4166489z" fill="#ff84a0"/></g></g><g><g><path d="m99.778862 54.7752724c0 1.8898544-1.5344086 3.4243622-3.416214 3.4243622-1.4780197 0-2.7459717-.9449768-3.2224655-2.2613297.5168839.3149605 1.130661.5006485 1.7848282.5006485 1.8898544 0 3.4243851-1.5345116 3.4243851-3.4243622 0-.3957253-.0645523-.7833366-.1938019-1.1387787.9691009.5977478 1.6232681 1.6717949 1.6232681 2.8994599z" fill="#f76189"/></g></g><g><g><path d="m96.3619308 58.949585c-2.3012695 0-4.1733398-1.8720703-4.1733398-4.1730957 0-2.2976074 1.8720703-4.166748 4.1733398-4.166748 2.2973633 0 4.1665039 1.8691406 4.1665039 4.166748.0000001 2.3010253-1.8691406 4.1730957-4.1665039 4.1730957zm0-6.8398438c-1.4741211 0-2.6733398 1.1962891-2.6733398 2.666748 0 1.473877 1.1992188 2.6730957 2.6733398 2.6730957 1.4702148 0 2.6665039-1.1992188 2.6665039-2.6730957.0000001-1.4704589-1.196289-2.666748-2.6665039-2.666748z" fill="#0f0f0f"/></g></g></g><g><g><path d="m3.96997 10.2361956c1.4295533-.2901087 2.7035272-1.0049391 3.6943071-1.9957418.9909096-.9908028 1.6985645-2.2647538 1.988781-3.6943069.0353394-.1698461.2618361-.1698461.2971764 0 .2902155 1.429553.9979782 2.7035041 1.988781 3.6943069s2.2646465 1.7056332 3.6943064 1.9957418c.1698465.0354471.1698465.2619438 0 .2972832-2.8521452.5873928-5.0956955 2.8380108-5.6830873 5.690156-.0353403.1698456-.261837.1698456-.2971764 0-.2902164-1.4296598-.9978714-2.7035036-1.9958491-3.6944141-.9837117-.990695-2.2576857-1.7055254-3.6872389-1.9957418" fill="#ffd9b0"/></g></g><g><g><path d="m15.6362133 10.5298386c-2.8581429.5869637-5.1002998 2.8388662-5.6873713 5.6969013-.0384455.1636353-.2598019.1636353-.2983541 0-.2790785-1.3664761-.9237642-2.5887022-1.8476357-3.5510187 2.2133498-.4041605 3.8974814-2.2903481 3.993732-4.5998659.0384464.0577221.0961676.1154442.1442518.1636343.991231.9911242 2.2615404 1.7032776 3.6953773 1.9919939.1635513.0384454.1635513.2694397 0 .2983551z" fill="#edb57e"/></g></g><g><g><path d="m9.801384 17.1009521c-.4301758 0-.7929688-.2973633-.8823242-.7229004-.2563477-1.2626953-.875-2.407959-1.7900391-3.3166504-.9140625-.920166-2.0566406-1.5388184-3.3081055-1.7927246-.4057617-.0825195-.668457-.4780273-.5864258-.8837891-.0820312-.4057616.1806641-.8012694.5864258-.883789 1.2490234-.253418 2.3950195-.8728027 3.3129883-1.7910156.9125977-.9121094 1.5292969-2.0576172 1.7841797-3.3129883.090332-.4306641.453125-.7282715.8833008-.7282715.4306641 0 .793457.2976074.8828125.7233887.2558594 1.2597656.8725586 2.4052734 1.7851563 3.3178711.9179688.9182129 2.0639648 1.5375977 3.3129883 1.7910156.4306641.0898438.7285156.4528809.7285156.8837891s-.2978516.7939453-.7246094.8828125c-2.5698242.5292969-4.5712891 2.5339355-5.1015625 5.1074219-.0898438.4284668-.4526368.72583-.8833008.72583zm-3.9042969-6.7160644c.8457031.3950195 1.6210938.9396973 2.2924805 1.6157227.6738281.6691895 1.2177734 1.4448242 1.612793 2.2932129.7998047-1.722168 2.184082-3.107666 3.9042969-3.9084473-.8447266-.3945313-1.6220703-.9387207-2.2978516-1.6147461-.671875-.6716309-1.2133789-1.4467773-1.6069336-2.2919922-.3935547.8449707-.9355469 1.6203613-1.6074219 2.2922363-.675293.675293-1.4521485 1.2192383-2.2973633 1.6140137z" fill="#0f0f0f"/></g></g></g></svg>