<svg id="Layer_1" enable-background="new 0 0 256 256" height="512" viewBox="0 0 256 256" width="512" xmlns="http://www.w3.org/2000/svg"><g><path d="m224.345 203.877h-192.69c-8.465 0-15.327-6.862-15.327-15.327v-160.679c0-8.465 6.862-15.327 15.327-15.327h192.691c8.465 0 15.327 6.862 15.327 15.327v160.679c0 8.465-6.863 15.327-15.328 15.327z" fill="#cecece"/><g><path d="m30.994 188.55v-160.679c0-8.465 6.862-15.327 15.327-15.327h-14.666c-8.465 0-15.327 6.862-15.327 15.327v160.679c0 8.465 6.862 15.327 15.327 15.327h14.667c-8.466 0-15.328-6.862-15.328-15.327z" fill="#afafaf"/></g><g><path d="m225.006 188.55v-160.679c0-8.465-6.862-15.327-15.327-15.327h14.667c8.465 0 15.327 6.862 15.327 15.327v160.679c0 8.465-6.862 15.327-15.327 15.327h-14.667c8.465 0 15.327-6.862 15.327-15.327z" fill="#e2e2e2"/></g><path d="m239.673 27.871c0-8.465-6.862-15.327-15.327-15.327h-192.691c-8.465 0-15.327 6.862-15.327 15.327v26.673h223.345z" fill="#f8af23"/><g><path d="m46.321 12.544h-14.666c-8.465 0-15.327 6.862-15.327 15.327v26.673h14.667v-26.673c-.001-8.465 6.861-15.327 15.326-15.327z" fill="#f87023"/></g><g><path d="m209.679 12.544h14.667c8.465 0 15.327 6.862 15.327 15.327v26.673h-14.667v-26.673c0-8.465-6.862-15.327-15.327-15.327z" fill="#f8d323"/></g><g fill="#f46275"><g><circle cx="43.688" cy="33.544" r="7"/><circle cx="70.65" cy="33.544" r="7"/><circle cx="97.612" cy="33.544" r="7"/></g><path d="m213.979 39.336h-88.573c-2.933 0-5.333-2.4-5.333-5.333 0-2.933 2.4-5.333 5.333-5.333h88.573c2.933 0 5.333 2.4 5.333 5.333.001 2.933-2.399 5.333-5.333 5.333z"/></g><g><path d="m142.581 222.483v-127.897c0-5.523 4.477-10 10-10h57.095c5.523 0 10 4.477 10 10v127.896c0 5.523-4.477 10-10 10h-57.095c-5.523.001-10-4.476-10-9.999z" fill="#cecece"/><g><path d="m209.676 84.586h-14.667c5.523 0 10 4.477 10 10v127.896c0 5.523-4.477 10-10 10h14.667c5.523 0 10-4.477 10-10v-127.896c0-5.522-4.477-10-10-10z" fill="#e2e2e2"/></g><path d="m142.581 94.42h77.095v119.969h-77.095z" fill="#63bce7"/><g><path d="m205.009 94.42h14.667v119.969h-14.667z" fill="#63e2e7"/></g><circle cx="181.128" cy="223.436" fill="#3f3679" r="3.147"/><g fill="#cecece"><path d="m153.153 107.032h55.95v25.757h-55.95z"/><path d="m153.153 141.526h55.95v25.757h-55.95z"/><path d="m153.153 176.02h55.95v25.757h-55.95z"/></g></g><g><path d="m37.923 74.62h88.571v40.775h-88.571z" fill="#63bce7"/><path d="m37.923 115.395 44.285-36.279 44.286 36.279z" fill="#f8af23"/><path d="m103.445 96.513 11.347-9.296 11.702 9.586v18.592z" fill="#f46275"/></g><path d="m37.923 129.901h88.571v36.703h-88.571z" fill="#f46275"/><path d="m116.344 155.183-29.757-9.84 4.533 31.012 6.857-9.708 12.367 14.733 7.616-6.394-12.366-14.732z" fill="#9e9e9e"/><g fill="#3f3679"><path d="m27.323 241.956h-18.003c-.829 0-1.5.671-1.5 1.5s.671 1.5 1.5 1.5h18.003c.829 0 1.5-.671 1.5-1.5s-.671-1.5-1.5-1.5z"/><path d="m246.68 241.956h-18.003c-.829 0-1.5.671-1.5 1.5s.671 1.5 1.5 1.5h18.003c.829 0 1.5-.671 1.5-1.5s-.671-1.5-1.5-1.5z"/><path d="m218.479 241.956h-180.958c-.829 0-1.5.671-1.5 1.5s.671 1.5 1.5 1.5h180.959c.829 0 1.5-.671 1.5-1.5s-.672-1.5-1.501-1.5z"/><path d="m9.32 233.983h143.261 57.095 37.004c.829 0 1.5-.671 1.5-1.5s-.671-1.5-1.5-1.5h-29.286c2.316-2.105 3.781-5.131 3.781-8.5v-8.094-9.012h3.169c9.278 0 16.827-7.549 16.827-16.827v-134.006-26.672c0-5.799-2.949-10.922-7.426-13.949-2.686-1.816-5.922-2.878-9.402-2.878h-192.688c-3.479 0-6.716 1.062-9.402 2.878-4.477 3.027-7.426 8.15-7.426 13.949v26.672 134.006c0 9.278 7.549 16.827 16.827 16.827h109.426v9.012 8.094c0 3.369 1.465 6.395 3.781 8.5h-135.541c-.829 0-1.5.671-1.5 1.5s.671 1.5 1.5 1.5zm134.761-138.063h74.095v116.969h-74.095zm.166-3c.777-3.891 4.217-6.833 8.334-6.833h57.095c4.117 0 7.557 2.942 8.334 6.833zm-112.592-78.876h192.69c.953 0 1.884.097 2.783.281 6.295 1.292 11.044 6.875 11.044 13.546v25.172h-220.344v-25.171c0-6.671 4.749-12.255 11.044-13.546.899-.185 1.83-.282 2.783-.282zm0 188.333c-7.625 0-13.827-6.203-13.827-13.827v-132.506h220.345v132.506c0 7.625-6.203 13.827-13.827 13.827h-3.169v-107.791-.166c0-.058-.011-.113-.017-.169-.18-6.186-5.255-11.165-11.483-11.165h-57.095c-6.228 0-11.303 4.979-11.483 11.165-.006.056-.017.111-.017.169v.167 107.791h-109.427zm112.426 20.106v-6.594h74.095v6.594c0 4.687-3.813 8.5-8.5 8.5h-57.095c-4.687 0-8.5-3.813-8.5-8.5z"/><path d="m43.687 42.044c4.687 0 8.5-3.813 8.5-8.5s-3.813-8.5-8.5-8.5-8.5 3.813-8.5 8.5 3.813 8.5 8.5 8.5zm0-14c3.033 0 5.5 2.467 5.5 5.5s-2.467 5.5-5.5 5.5-5.5-2.467-5.5-5.5 2.468-5.5 5.5-5.5z"/><path d="m70.65 42.044c4.687 0 8.5-3.813 8.5-8.5s-3.813-8.5-8.5-8.5-8.5 3.813-8.5 8.5 3.813 8.5 8.5 8.5zm0-14c3.033 0 5.5 2.467 5.5 5.5s-2.467 5.5-5.5 5.5-5.5-2.467-5.5-5.5 2.467-5.5 5.5-5.5z"/><path d="m97.612 42.044c4.687 0 8.5-3.813 8.5-8.5s-3.813-8.5-8.5-8.5-8.5 3.813-8.5 8.5 3.813 8.5 8.5 8.5zm0-14c3.033 0 5.5 2.467 5.5 5.5s-2.467 5.5-5.5 5.5-5.5-2.467-5.5-5.5 2.468-5.5 5.5-5.5z"/><path d="m125.406 40.836h88.573c3.768 0 6.833-3.065 6.833-6.833s-3.065-6.833-6.833-6.833h-88.573c-3.768 0-6.833 3.065-6.833 6.833s3.065 6.833 6.833 6.833zm0-10.667h88.573c2.114 0 3.833 1.72 3.833 3.833s-1.72 3.833-3.833 3.833h-88.573c-2.114 0-3.833-1.72-3.833-3.833s1.719-3.833 3.833-3.833z"/><path d="m209.103 105.532h-55.95c-.829 0-1.5.671-1.5 1.5v25.757c0 .829.671 1.5 1.5 1.5h55.95c.829 0 1.5-.671 1.5-1.5v-25.757c0-.829-.671-1.5-1.5-1.5zm-54.45 3.841 22.888 10.537-22.888 10.537zm52.95 21.074-22.888-10.537 22.888-10.537zm-26.475-12.188-21.13-9.728h42.26zm0 3.303 21.13 9.728h-42.26z"/><path d="m209.103 140.026h-55.95c-.829 0-1.5.671-1.5 1.5v25.757c0 .829.671 1.5 1.5 1.5h55.95c.829 0 1.5-.671 1.5-1.5v-25.757c0-.829-.671-1.5-1.5-1.5zm-54.45 3.842 22.888 10.537-22.888 10.537zm5.345-.842h42.26l-21.13 9.728zm21.13 13.03 21.13 9.728h-42.26zm3.587-1.651 22.888-10.537v21.074z"/><path d="m209.103 174.52h-55.95c-.829 0-1.5.671-1.5 1.5v25.757c0 .829.671 1.5 1.5 1.5h55.95c.829 0 1.5-.671 1.5-1.5v-25.757c0-.829-.671-1.5-1.5-1.5zm-54.45 3.842 22.888 10.537-22.888 10.537zm5.345-.842h42.26l-21.13 9.728zm21.13 13.03 21.13 9.728h-42.26zm3.587-1.651 22.888-10.537v21.074z"/><path d="m126.494 73.12h-88.571c-.829 0-1.5.671-1.5 1.5v40.775c0 .829.671 1.5 1.5 1.5h88.571c.829 0 1.5-.671 1.5-1.5v-40.775c0-.828-.672-1.5-1.5-1.5zm-23.995 24.557c.001 0 .001.001.002.001l19.796 16.217h-80.176l40.088-32.841zm3.312-1.164 8.981-7.357 10.201 8.357v14.715zm19.183-20.393v17.515l-9.25-7.578c-.553-.453-1.349-.453-1.901 0l-10.397 8.517-20.287-16.618c-.553-.453-1.349-.453-1.901 0l-41.835 34.272v-36.108z"/><path d="m126.494 128.401h-88.571c-.829 0-1.5.671-1.5 1.5v36.703c0 .829.671 1.5 1.5 1.5h50.475l1.238 8.468c.089.607.539 1.099 1.135 1.242.598.142 1.22-.093 1.574-.594l5.734-8.119 11.116 13.242c.256.305.622.496 1.019.53.043.004.087.006.13.006.352 0 .693-.124.964-.351l7.616-6.394c.635-.533.717-1.479.185-2.113l-4.967-5.918h12.352c.829 0 1.5-.671 1.5-1.5v-36.703c0-.828-.672-1.499-1.5-1.499zm-15.965 50.866-11.403-13.584c-.286-.34-.707-.536-1.149-.536-.021 0-.042 0-.063.001-.465.019-.895.253-1.163.633l-4.69 6.641-3.64-24.893 23.886 7.898-7.354 3.469c-.421.198-.726.581-.826 1.035s.017.929.316 1.286l11.402 13.584zm14.465-14.163h-13.37l-3.63-4.324 8.989-4.24c.555-.262.895-.835.857-1.447-.037-.613-.443-1.141-1.026-1.333l-29.757-9.84c-.491-.162-1.036-.059-1.435.275-.398.334-.595.851-.52 1.366l2.857 19.544h-48.536v-33.703h85.571z"/></g></g></svg>