<svg xmlns="http://www.w3.org/2000/svg" viewBox="0 0 1266.52 1266.53"><defs><style>.cls-1,.cls-5{fill:#fff;}.cls-1,.cls-2,.cls-5{stroke:#121212;stroke-miterlimit:10;}.cls-1{stroke-width:30px;}.cls-2,.cls-4{fill:#121212;}.cls-2,.cls-5{stroke-width:15px;}.cls-3{fill:orange;}</style></defs><g id="Layer_2" data-name="Layer 2"><g id="Layer_4" data-name="Layer 4"><path class="cls-1" d="M1251.52,633.26A615.66,615.66,0,0,1,1176.89,928C1072.19,1120.7,868,1251.53,633.26,1251.53s-439-130.89-543.7-323.67A615.58,615.58,0,0,1,15,633.26C15,291.8,291.8,15,633.26,15S1251.52,291.8,1251.52,633.26Z"/></g><g id="Layer_9" data-name="Layer 9"><path class="cls-2" d="M1179.21,928c-104.7,192.71-308.88,323.54-543.63,323.54s-439-130.89-543.7-323.67c2.77-2.82,5.67-5.51,8.67-8.08a235.3,235.3,0,0,1,27.83-48.43l129-173.22a231.42,231.42,0,0,1,17.13-20.47l-2.79-5.75a201.33,201.33,0,0,1,0-175.38L379.59,273.47A201.37,201.37,0,0,1,560.86,159.78H719A201.39,201.39,0,0,1,900.25,273.47l107.9,223.06a201.26,201.26,0,0,1,0,175.38l-7.25,15q4.62,5.45,8.9,11.22l129,173.22A236.87,236.87,0,0,1,1164.51,915a137.41,137.41,0,0,1,13.83,12.12Z"/></g><g id="Layer_5" data-name="Layer 5"><path class="cls-3" d="M888.14,424.08c0-68.95-59.08-124.85-132-124.85-37.09,0-70.6,14.48-94.58,37.78l-.43.21a77.91,77.91,0,0,1-34.5,7.94c-2.45,0-4.91-.11-7.35-.34a40.11,40.11,0,0,1-22.56-9.75,135.73,135.73,0,0,0-89.2-32.84c-72.89,0-132,55.9-132,124.85,0,.83,0,1.66,0,2.48q0,.84,0,1.68v35.5c0,33.23,21.26,62.22,52.74,77.47,5.71,2.76,7.6,9,4.16,13.81l-23.3,32.4c-20.59,28.62-20.59,64.77,0,93.4L473.37,773c18.87,26.23,52.23,42.2,88.16,42.2H702.21c35.93,0,69.29-16,88.16-42.2l64.18-89.21c20.6-28.63,20.6-64.78,0-93.4L831.25,558c-3.44-4.78-1.55-11,4.16-13.81C866.89,529,888.14,500,888.14,466.74v-35.5c0-1.07,0-2.13-.07-3.19C888.12,426.73,888.14,425.41,888.14,424.08Z"/></g><g id="Layer_10" data-name="Layer 10"><path class="cls-4" d="M685.36,657.63c-8,4.59-20.93-3-28.92-16.85s-8-28.88,0-33.47,20.94,3,28.92,16.85S693.35,653,685.36,657.63Z"/><path class="cls-4" d="M573.6,657.63c8,4.59,20.93-3,28.92-16.85s8-28.88,0-33.47-20.94,3-28.92,16.85S565.61,653,573.6,657.63Z"/></g><g id="Layer_7" data-name="Layer 7"><ellipse class="cls-5" cx="732.06" cy="460.21" rx="73.05" ry="98.96"/><ellipse class="cls-4" cx="769.96" cy="460.21" rx="35.46" ry="57.05"/><ellipse class="cls-5" cx="522.71" cy="460.21" rx="64.74" ry="87.7"/><ellipse class="cls-4" cx="557.76" cy="463.55" rx="28.01" ry="45.07"/></g><g id="Layer_6" data-name="Layer 6"><path class="cls-4" d="M640.91,169a75.54,75.54,0,0,1-63,45.37A61,61,0,1,0,500,121.57a1.05,1.05,0,0,1-1.79-1A75.6,75.6,0,1,1,640.91,169Z"/></g></g></svg>