<svg width="25" height="25" viewBox="0 0 25 25" fill="none" xmlns="http://www.w3.org/2000/svg">
<rect x="10.125" y="10.125" width="13.0643" height="13.0643" rx="2.875" stroke="#363636" stroke-width="1.75" stroke-linejoin="round"/>
<path d="M15.9194 12.2568H17.3969L20.4296 20.4283H19.041L18.3189 18.3797H14.9974L14.2753 20.4283H12.8867L15.9194 12.2568ZM15.3862 17.281H17.9301L16.6859 13.6989H16.6415L15.3862 17.281Z" fill="#363636"/>
<rect width="13.832" height="13.832" rx="2" fill="#363636"/>
<path d="M5.81245 12.5037L5.78046 12.5147H5.67383C5.61695 12.5 5.57786 12.452 5.55653 12.3708H5.54587L5.46056 12.3929L5.4499 12.3154C5.49255 12.2858 5.51388 12.2452 5.51388 12.1936C5.47833 11.9204 5.46056 11.5438 5.46056 11.0638C5.46056 10.8423 5.50677 10.3255 5.59918 9.51327C5.62051 9.277 5.63117 9.02595 5.63117 8.76014C5.60985 8.76014 5.48899 8.84136 5.26862 9.0038C5.23307 9.0038 5.18331 9.01857 5.11933 9.0481L5.08734 9.03703C4.9736 9.0961 4.8563 9.12563 4.73545 9.12563C4.65014 9.08871 4.60749 9.0481 4.60749 9.0038C4.60749 8.93735 4.6146 8.86351 4.62882 8.78229C4.64303 8.70107 4.65725 8.62354 4.67147 8.5497C4.59327 8.5497 4.47953 8.49802 4.33024 8.39465C4.15252 8.35034 4.01389 8.24697 3.91437 8.08453C3.90015 8.08453 3.87527 8.055 3.83973 7.99593C3.67622 7.88517 3.56959 7.74488 3.51983 7.57506C3.48428 7.49384 3.4203 7.40154 3.32788 7.29817C3.14305 7.01759 3.01865 6.8773 2.95467 6.8773C2.94045 6.81823 2.91557 6.77393 2.88002 6.74439L2.8587 6.71117C2.88002 6.62995 2.90135 6.57457 2.92268 6.54503L2.90135 6.4232L2.944 6.2903C2.78761 6.03187 2.70941 5.87312 2.70941 5.81405L2.63477 5.45963C2.67742 5.45963 2.72718 5.48178 2.78405 5.52608L2.8587 5.45963C2.91557 5.45963 2.95111 5.51501 2.96533 5.62576C3.05064 5.6996 3.18926 5.76975 3.3812 5.8362C3.45229 5.69591 3.6229 5.58146 3.89304 5.49286C4.03522 5.49286 4.5364 5.23074 5.39658 4.70649C5.56719 4.62527 5.66316 4.56251 5.68449 4.51821C5.68449 4.18595 5.68804 3.94967 5.69515 3.80938H5.71648C5.71648 3.80199 5.70937 3.7983 5.69515 3.7983L5.71648 3.73185C5.71648 3.62109 5.72359 3.54356 5.73781 3.49926C5.73781 3.48449 5.7307 3.47711 5.71648 3.47711C5.73781 3.38851 5.74847 3.19284 5.74847 2.89011H5.75913C5.75913 2.87534 5.75558 2.86796 5.74847 2.86796C5.75558 2.82365 5.75913 2.66121 5.75913 2.38063C5.75913 2.11482 5.72714 1.93392 5.66316 1.83793L5.54587 1.6718C5.4961 1.62011 5.47122 1.54258 5.47122 1.43921C5.50677 1.43921 5.59563 1.48721 5.73781 1.5832H5.75913V1.54997L5.6525 1.37276V1.31738H5.68449C5.76269 1.3986 5.85866 1.45767 5.9724 1.49459C6.13591 1.57581 6.34562 1.71241 6.60154 1.90439C6.94988 2.09636 7.19158 2.26249 7.32665 2.40278C7.47594 2.44709 7.55058 2.50246 7.55058 2.56892C7.55058 2.62799 7.61456 2.6686 7.74252 2.69075C7.74252 2.74982 7.74607 2.78304 7.75318 2.79043C7.73897 2.81996 7.73186 2.84581 7.73186 2.86796C7.75318 2.91964 7.76385 2.96025 7.76385 2.98979L7.74252 3.03409L7.75318 3.20022C7.75318 3.22976 7.72119 3.26668 7.65721 3.31098L7.63589 3.61002C7.63589 3.63217 7.63944 3.64694 7.64655 3.65432C7.63944 3.66909 7.63589 3.69862 7.63589 3.74292C7.97 3.66909 8.1655 3.60633 8.22237 3.55464C8.30057 3.55464 8.38943 3.52141 8.48896 3.45496C8.53161 3.42543 8.58848 3.40697 8.65957 3.39958V3.41066C8.71644 3.35897 8.83018 3.32944 9.0008 3.32205C9.68325 3.38851 10.0849 3.46973 10.2058 3.56572C10.2484 3.56572 10.3586 3.6174 10.5363 3.72077C10.6927 3.77984 10.8242 3.87214 10.9309 3.99766C11.1086 4.22656 11.1975 4.42591 11.1975 4.59574L11.1868 4.61789L11.1975 4.66219C11.1619 4.7951 11.1121 4.90216 11.0482 4.98338C11.0482 5.02769 10.9877 5.17905 10.8669 5.43748C10.7887 5.68114 10.6181 5.92111 10.355 6.15739C10.2768 6.20907 10.22 6.23492 10.1844 6.23492C10.156 6.2423 10.1205 6.24599 10.0778 6.24599L9.93917 6.19062C9.89652 6.25707 9.83965 6.2903 9.76856 6.2903L9.7579 6.19062C9.72946 6.198 9.69747 6.20169 9.66193 6.20169C9.66193 6.17216 9.64415 6.13893 9.60861 6.10201C9.55885 6.13155 9.51619 6.14631 9.48065 6.14631C9.45932 6.14631 9.42022 6.12416 9.36335 6.07986H9.33136C9.24605 6.14631 9.13942 6.25338 9.01146 6.40105C9.36691 6.48227 9.54463 6.55611 9.54463 6.62256C9.58017 6.62256 9.62638 6.68532 9.68325 6.81085V6.84407C9.66904 6.95483 9.64415 7.0102 9.60861 7.0102C9.57306 7.0102 9.55529 7.00282 9.55529 6.98805C9.55529 6.98805 9.5233 7.0139 9.45932 7.06558C9.45932 7.05082 9.45577 7.04343 9.44866 7.04343C9.40601 7.04343 9.36691 7.10988 9.33136 7.24279C9.31714 7.24279 9.22828 7.30555 9.06478 7.43107C9.05767 7.43107 9.00435 7.42369 8.90483 7.40892C8.7271 7.40892 8.62758 7.43477 8.60625 7.48645L8.14773 7.43107C7.90602 7.5123 7.67854 7.6009 7.46527 7.69689L7.45461 7.79657L7.42262 8.68261L7.44394 8.74906C7.44394 8.75645 7.43684 8.76014 7.42262 8.76014C7.43684 8.84874 7.44394 8.98165 7.44394 9.15886C7.44394 9.73479 7.39063 10.3292 7.28399 10.942C7.25556 11.1266 7.24134 11.337 7.24134 11.5733L7.23068 11.6176C7.23779 11.625 7.24134 11.6361 7.24134 11.6509H7.23068C7.23068 11.6582 7.23423 11.6619 7.24134 11.6619C7.22001 12.0976 7.18092 12.3154 7.12404 12.3154C7.12404 12.3375 7.08495 12.356 7.00675 12.3708C7.00675 12.3781 6.99964 12.3818 6.98542 12.3818C6.92144 12.3818 6.87523 12.3781 6.8468 12.3708C6.8468 12.3708 6.82547 12.3929 6.78282 12.4372H6.76149V12.3486C6.74727 12.3486 6.73661 12.3449 6.7295 12.3375C6.59443 12.3597 6.5269 12.3929 6.5269 12.4372C6.50557 12.4372 6.47358 12.4261 6.43093 12.404C6.40249 12.4335 6.37405 12.4483 6.34562 12.4483L6.28164 12.3818C6.22477 12.4483 6.17856 12.4815 6.14301 12.4815C6.1288 12.4815 6.10747 12.452 6.07903 12.3929C6.00794 12.4594 5.95107 12.4926 5.90842 12.4926C5.90842 12.5074 5.87643 12.5147 5.81245 12.5147V12.5037ZM7.49726 6.14631C7.55413 6.10201 7.6892 5.89527 7.90247 5.52608C8.05887 5.20859 8.14773 4.95385 8.16905 4.76187L8.13706 4.68434C7.88114 4.7508 7.71408 4.80617 7.63589 4.85048C7.63589 4.87263 7.61811 4.98708 7.58257 5.19382L7.52925 5.53716V5.80297L7.49726 6.07986V6.14631ZM5.49255 7.58613C5.58496 7.5566 5.63117 7.53075 5.63117 7.5086C5.63117 6.68901 5.64184 6.16846 5.66316 5.94695L5.6525 5.90265C5.1762 6.21277 4.85986 6.36782 4.70346 6.36782C4.68213 6.36782 4.63237 6.38259 4.55417 6.41213L4.52218 6.40105C4.51507 6.40843 4.4973 6.41213 4.46887 6.41213C4.34801 6.33091 4.24849 6.2903 4.17029 6.2903C4.27692 6.43797 4.38711 6.53765 4.50086 6.58933C4.52929 6.62625 4.60393 6.71117 4.72479 6.84407C4.84564 6.96959 5.0127 7.13942 5.22596 7.35355C5.28284 7.47169 5.33971 7.53075 5.39658 7.53075C5.39658 7.56767 5.42857 7.58613 5.49255 7.58613ZM9.02212 6.25707C9.02212 6.2423 9.01502 6.23492 9.0008 6.23492C8.85151 6.2423 8.77687 6.26445 8.77687 6.30137V6.31245C8.8835 6.35675 8.94748 6.3789 8.96881 6.3789L9.02212 6.25707ZM5.19397 9.12563L5.26862 9.0924H5.27928C5.27928 9.12932 5.25085 9.15147 5.19397 9.15886V9.12563Z" fill="white"/>
</svg>
