<svg width="25" height="25" viewBox="0 0 25 25" fill="none" xmlns="http://www.w3.org/2000/svg">
<rect x="10.125" y="10.125" width="13.0643" height="13.0643" rx="2.875" stroke="black" stroke-width="1.75" stroke-linejoin="round"/>
<path d="M15.5978 20.9911L15.5716 21H15.4844C15.4379 20.9881 15.406 20.9496 15.3885 20.8843H15.3798L15.3101 20.9021L15.3014 20.8398C15.3362 20.816 15.3537 20.7834 15.3537 20.7418C15.3246 20.5223 15.3101 20.2196 15.3101 19.8338C15.3101 19.6558 15.3479 19.2404 15.4234 18.5875C15.4408 18.3976 15.4496 18.1958 15.4496 17.9822C15.4321 17.9822 15.3333 18.0475 15.1532 18.178C15.1241 18.178 15.0834 18.1899 15.0311 18.2137L15.005 18.2047C14.912 18.2522 14.8161 18.276 14.7173 18.276C14.6476 18.2463 14.6127 18.2136 14.6127 18.178C14.6127 18.1246 14.6185 18.0653 14.6301 18C14.6418 17.9347 14.6534 17.8724 14.665 17.8131C14.6011 17.8131 14.5081 17.7715 14.3861 17.6884C14.2408 17.6528 14.1274 17.5697 14.0461 17.4392C14.0345 17.4392 14.0141 17.4154 13.9851 17.368C13.8514 17.2789 13.7642 17.1662 13.7235 17.0297C13.6945 16.9644 13.6422 16.8902 13.5666 16.8071C13.4155 16.5816 13.3138 16.4688 13.2615 16.4688C13.2499 16.4214 13.2296 16.3858 13.2005 16.362L13.1831 16.3353C13.2005 16.27 13.2179 16.2255 13.2354 16.2018L13.2179 16.1039L13.2528 15.997C13.1249 15.7893 13.061 15.6617 13.061 15.6142L13 15.3294C13.0349 15.3294 13.0755 15.3472 13.122 15.3828L13.1831 15.3294C13.2296 15.3294 13.2586 15.3739 13.2702 15.4629C13.34 15.5223 13.4533 15.5786 13.6102 15.632C13.6683 15.5193 13.8078 15.4273 14.0286 15.3561C14.1449 15.3561 14.5546 15.1454 15.2578 14.724C15.3973 14.6588 15.4757 14.6083 15.4932 14.5727C15.4932 14.3056 15.4961 14.1157 15.5019 14.003H15.5193C15.5193 13.997 15.5135 13.9941 15.5019 13.9941L15.5193 13.9407C15.5193 13.8516 15.5251 13.7893 15.5367 13.7537C15.5367 13.7418 15.5309 13.7359 15.5193 13.7359C15.5367 13.6647 15.5455 13.5074 15.5455 13.2641H15.5542C15.5542 13.2522 15.5513 13.2463 15.5455 13.2463C15.5513 13.2107 15.5542 13.0801 15.5542 12.8546C15.5542 12.6409 15.528 12.4955 15.4757 12.4184L15.3798 12.2849C15.3391 12.2433 15.3188 12.181 15.3188 12.0979C15.3479 12.0979 15.4205 12.1365 15.5367 12.2136H15.5542V12.1869L15.467 12.0445V12H15.4932C15.5571 12.0653 15.6355 12.1128 15.7285 12.1424C15.8622 12.2077 16.0336 12.3175 16.2428 12.4718C16.5276 12.6261 16.7252 12.7596 16.8356 12.8724C16.9577 12.908 17.0187 12.9525 17.0187 13.0059C17.0187 13.0534 17.071 13.0861 17.1756 13.1039C17.1756 13.1513 17.1785 13.178 17.1843 13.184C17.1727 13.2077 17.1669 13.2285 17.1669 13.2463C17.1843 13.2878 17.193 13.3205 17.193 13.3442L17.1756 13.3798L17.1843 13.5134C17.1843 13.5371 17.1582 13.5668 17.1059 13.6024L17.0884 13.8427C17.0884 13.8605 17.0913 13.8724 17.0971 13.8783C17.0913 13.8902 17.0884 13.9139 17.0884 13.9496C17.3616 13.8902 17.5214 13.8398 17.5679 13.7982C17.6318 13.7982 17.7044 13.7715 17.7858 13.7181C17.8207 13.6944 17.8672 13.6795 17.9253 13.6736V13.6825C17.9718 13.6409 18.0648 13.6172 18.2042 13.6113C18.7621 13.6647 19.0905 13.73 19.1893 13.8071C19.2242 13.8071 19.3142 13.8487 19.4595 13.9318C19.5874 13.9792 19.6949 14.0534 19.7821 14.1543C19.9274 14.3383 20 14.4985 20 14.635L19.9913 14.6528L20 14.6884C19.9709 14.7953 19.9303 14.8813 19.878 14.9466C19.878 14.9822 19.8286 15.1039 19.7298 15.3116C19.6658 15.5074 19.5264 15.7003 19.3113 15.8902C19.2474 15.9318 19.2009 15.9525 19.1719 15.9525C19.1486 15.9585 19.1196 15.9614 19.0847 15.9614L18.9714 15.9169C18.9365 15.9703 18.89 15.997 18.8319 15.997L18.8232 15.9169C18.7999 15.9228 18.7738 15.9258 18.7447 15.9258C18.7447 15.9021 18.7302 15.8754 18.7011 15.8457C18.6604 15.8694 18.6256 15.8813 18.5965 15.8813C18.5791 15.8813 18.5471 15.8635 18.5006 15.8279H18.4745C18.4047 15.8813 18.3176 15.9674 18.213 16.0861C18.5035 16.1513 18.6488 16.2107 18.6488 16.2641C18.6779 16.2641 18.7156 16.3145 18.7621 16.4154V16.4421C18.7505 16.5312 18.7302 16.5757 18.7011 16.5757C18.6721 16.5757 18.6575 16.5697 18.6575 16.5579C18.6575 16.5579 18.6314 16.5786 18.5791 16.6202C18.5791 16.6083 18.5762 16.6024 18.5704 16.6024C18.5355 16.6024 18.5035 16.6558 18.4745 16.7626C18.4628 16.7626 18.3902 16.8131 18.2565 16.9139C18.2507 16.9139 18.2071 16.908 18.1258 16.8961C17.9805 16.8961 17.8991 16.9169 17.8817 16.9585L17.5068 16.9139C17.3093 16.9792 17.1233 17.0504 16.9489 17.1276L16.9402 17.2077L16.9141 17.9199L16.9315 17.9733C16.9315 17.9792 16.9257 17.9822 16.9141 17.9822C16.9257 18.0534 16.9315 18.1602 16.9315 18.3027C16.9315 18.7656 16.8879 19.2433 16.8007 19.7359C16.7775 19.8843 16.7659 20.0534 16.7659 20.2433L16.7572 20.2789C16.763 20.2849 16.7659 20.2938 16.7659 20.3056H16.7572C16.7572 20.3116 16.7601 20.3145 16.7659 20.3145C16.7484 20.6647 16.7165 20.8398 16.67 20.8398C16.67 20.8576 16.638 20.8724 16.5741 20.8843C16.5741 20.8902 16.5683 20.8932 16.5567 20.8932C16.5044 20.8932 16.4666 20.8902 16.4433 20.8843C16.4433 20.8843 16.4259 20.9021 16.391 20.9377H16.3736V20.8665C16.362 20.8665 16.3533 20.8635 16.3474 20.8576C16.237 20.8754 16.1818 20.9021 16.1818 20.9377C16.1644 20.9377 16.1382 20.9288 16.1034 20.911C16.0801 20.9347 16.0569 20.9466 16.0336 20.9466L15.9813 20.8932C15.9348 20.9466 15.8971 20.9733 15.868 20.9733C15.8564 20.9733 15.8389 20.9496 15.8157 20.9021C15.7576 20.9555 15.7111 20.9822 15.6762 20.9822C15.6762 20.9941 15.6501 21 15.5978 21V20.9911ZM16.9751 15.8813C17.0216 15.8457 17.132 15.6795 17.3064 15.3828C17.4342 15.1276 17.5068 14.9228 17.5243 14.7685L17.4981 14.7062C17.2889 14.7596 17.1523 14.8042 17.0884 14.8398C17.0884 14.8576 17.0739 14.9496 17.0448 15.1157L17.0012 15.3917V15.6053L16.9751 15.8279V15.8813ZM15.3362 17.0386C15.4118 17.0148 15.4496 16.9941 15.4496 16.9763C15.4496 16.3175 15.4583 15.8991 15.4757 15.7211L15.467 15.6855C15.0776 15.9347 14.819 16.0593 14.6912 16.0593C14.6737 16.0593 14.633 16.0712 14.5691 16.095L14.543 16.0861C14.5372 16.092 14.5226 16.095 14.4994 16.095C14.4006 16.0297 14.3192 15.997 14.2553 15.997C14.3425 16.1157 14.4325 16.1958 14.5255 16.2374C14.5488 16.2671 14.6098 16.3353 14.7086 16.4421C14.8074 16.543 14.944 16.6795 15.1183 16.8516C15.1648 16.9466 15.2113 16.9941 15.2578 16.9941C15.2578 17.0237 15.2839 17.0386 15.3362 17.0386ZM18.2217 15.9703C18.2217 15.9585 18.2159 15.9525 18.2042 15.9525C18.0822 15.9585 18.0212 15.9763 18.0212 16.0059V16.0148C18.1083 16.0504 18.1606 16.0682 18.1781 16.0682L18.2217 15.9703ZM15.0922 18.276L15.1532 18.2493H15.1619C15.1619 18.2789 15.1386 18.2967 15.0922 18.3027V18.276Z" fill="black"/>
<rect width="13.832" height="13.832" rx="2" fill="black"/>
<path d="M5.9997 2H8L11.2165 11.5H9.52678L8.76095 8.7437H5.23812L4.47229 11.5H2.7832L5.9997 2ZM5.65049 7.53361H8.34858L7.02899 3.58824H6.98186L5.65049 7.53361Z" fill="white"/>
</svg>
