<svg id="Layer_1" enable-background="new 0 0 512 512" height="512" viewBox="0 0 512 512" width="512" xmlns="http://www.w3.org/2000/svg"><g><path d="m281.48 461.95c0 14.1-11.43 25.53-25.54 25.53-3.94 0-7.67-.89-11-2.49-8.59-4.1-14.53-12.88-14.53-23.04 0-10.17 5.94-18.95 14.53-23.05 3.33-1.6 7.06-2.49 11-2.49 14.11 0 25.54 11.43 25.54 25.54z" fill="#317794"/><path d="m281.48 461.95c0 14.1-11.43 25.53-25.54 25.53-3.94 0-7.67-.89-11-2.49 8.6-4.1 14.54-12.87 14.54-23.04s-5.94-18.95-14.54-23.05c3.33-1.6 7.06-2.49 11-2.49 14.11 0 25.54 11.43 25.54 25.54z" fill="#04627e"/><path d="m486.92 59.29v291.87c0 12.45-10.1 22.55-22.55 22.55h-416.74c-12.45 0-22.55-10.1-22.55-22.55v-291.87z" fill="#dcf3ff"/><path d="m486.92 59.29v291.87c0 12.45-10.1 22.55-22.55 22.55h-28.06c12.46 0 22.55-10.1 22.55-22.55v-291.87z" fill="#aedff4"/><path d="m69.51 103.45h186.43v224.39h-186.43z" fill="#64e2ff"/><path d="m223.58 103.45h32.36v224.39h-32.36z" fill="#15cdff"/><path d="m255.94 265.78v62.06h-186.43v-62.06l31.22-30 32.29 30 65.38-64.7 25.18 28.31z" fill="#00dfb6"/><path d="m255.94 265.78v62.06h-32.36v-98.45z" fill="#00c69a"/><path d="m135.653 146.843c-12.524 0-22.713 10.189-22.713 22.713s10.189 22.713 22.713 22.713 22.713-10.189 22.713-22.713-10.189-22.713-22.713-22.713z" fill="#ffde8f"/><g fill="#317794"><path d="m300.381 112.826h141.626v30.002h-141.626z"/><path d="m300.381 172.079h101.626v30.002h-101.626z"/></g><path d="m504.44 41.79c0 9.66-7.87 17.5-17.58 17.5h-461.84c-4.86 0-9.25-1.96-12.43-5.13-3.18-3.16-5.15-7.54-5.15-12.37 0-9.67 7.87-17.5 17.58-17.5h461.84c4.86 0 9.25 1.96 12.43 5.12 3.18 3.17 5.15 7.55 5.15 12.38z" fill="#317794"/><path d="m504.44 41.79c0 9.66-7.87 17.5-17.58 17.5h-28c9.71 0 17.58-7.84 17.58-17.5 0-4.83-1.97-9.21-5.15-12.38-3.18-3.16-7.57-5.12-12.43-5.12h28c4.86 0 9.25 1.96 12.43 5.12 3.18 3.17 5.15 7.55 5.15 12.38z" fill="#04627e"/></g><g><path d="m512 42.016c0-13.785-11.251-25-25.081-25h-76.934c-4.142 0-7.5 3.358-7.5 7.5s3.358 7.5 7.5 7.5h76.934c5.559 0 10.081 4.486 10.081 10s-4.522 10-10.081 10h-461.838c-5.559 0-10.081-4.486-10.081-10s4.522-10 10.081-10h350.348c4.142 0 7.5-3.358 7.5-7.5s-3.358-7.5-7.5-7.5h-350.348c-13.83 0-25.081 11.215-25.081 25 0 11.182 7.404 20.673 17.581 23.858v285.514c0 16.57 13.48 30.05 30.05 30.05h28.156c4.142 0 7.5-3.358 7.5-7.5s-3.358-7.5-7.5-7.5h-28.156c-8.299 0-15.05-6.751-15.05-15.05v-284.372h446.838v284.372c0 8.299-6.751 15.05-15.05 15.05h-354.074c-4.142 0-7.5 3.358-7.5 7.5s3.358 7.5 7.5 7.5h138.148v48.331c-14.616 3.406-25.537 16.54-25.537 32.178 0 18.216 14.82 33.037 33.037 33.037s33.037-14.82 33.037-33.037c0-15.638-10.921-28.773-25.537-32.178v-48.331h200.926c16.57 0 30.05-13.48 30.05-30.05v-285.514c10.177-3.185 17.581-12.676 17.581-23.858zm-238.02 419.931c0 9.945-8.091 18.037-18.037 18.037s-18.037-8.091-18.037-18.037 8.091-18.037 18.037-18.037 18.037 8.091 18.037 18.037z"/><path d="m255.943 145.39c4.142 0 7.5-3.358 7.5-7.5v-33.587c0-4.142-3.358-7.5-7.5-7.5h-186.428c-4.142 0-7.5 3.358-7.5 7.5v224.392c0 4.142 3.358 7.5 7.5 7.5h186.428c4.142 0 7.5-3.358 7.5-7.5v-155.94c0-4.142-3.358-7.5-7.5-7.5s-7.5 3.358-7.5 7.5v73.232l-44.442-49.963c-1.368-1.538-3.308-2.446-5.365-2.512-2.043-.062-4.051.717-5.514 2.165l-60.265 59.637-27.022-25.105c-2.914-2.707-7.434-2.669-10.302.087l-18.517 17.797v-136.29h171.428v26.087c-.001 4.142 3.357 7.5 7.499 7.5zm-155.127 100.631 27.099 25.176c1.441 1.339 3.274 2.005 5.104 2.005 1.909 0 3.817-.726 5.276-2.169l59.755-59.132 50.393 56.654v52.638h-171.428v-52.297z"/><path d="m105.666 169.556c0 16.535 13.452 29.987 29.987 29.987s29.988-13.452 29.988-29.987-13.453-29.987-29.988-29.987-29.987 13.452-29.987 29.987zm44.975 0c0 8.264-6.724 14.987-14.988 14.987s-14.987-6.723-14.987-14.987 6.723-14.987 14.987-14.987 14.988 6.723 14.988 14.987z"/><path d="m300.381 150.533h141.626c4.142 0 7.5-3.358 7.5-7.5v-30.002c0-4.142-3.358-7.5-7.5-7.5h-141.626c-4.142 0-7.5 3.358-7.5 7.5v30.002c0 4.142 3.358 7.5 7.5 7.5zm7.5-30.002h126.626v15.002h-126.626z"/><path d="m292.881 202.286c0 4.142 3.358 7.5 7.5 7.5h101.626c4.142 0 7.5-3.358 7.5-7.5v-30.002c0-4.142-3.358-7.5-7.5-7.5h-101.626c-4.142 0-7.5 3.358-7.5 7.5zm15-22.502h86.626v15.002h-86.626z"/><path d="m300.381 238.958h141.626c4.142 0 7.5-3.358 7.5-7.5s-3.358-7.5-7.5-7.5h-141.626c-4.142 0-7.5 3.358-7.5 7.5s3.358 7.5 7.5 7.5z"/><path d="m300.381 268.684h121.626c4.142 0 7.5-3.358 7.5-7.5s-3.358-7.5-7.5-7.5h-121.626c-4.142 0-7.5 3.358-7.5 7.5s3.358 7.5 7.5 7.5z"/><path d="m300.381 298.196h141.626c4.142 0 7.5-3.358 7.5-7.5s-3.358-7.5-7.5-7.5h-141.626c-4.142 0-7.5 3.358-7.5 7.5s3.358 7.5 7.5 7.5z"/><path d="m300.381 327.923h89.626c4.142 0 7.5-3.358 7.5-7.5s-3.358-7.5-7.5-7.5h-89.626c-4.142 0-7.5 3.358-7.5 7.5s3.358 7.5 7.5 7.5z"/><path d="m442.008 312.923h-22.61c-4.142 0-7.5 3.358-7.5 7.5s3.358 7.5 7.5 7.5h22.61c4.142 0 7.5-3.358 7.5-7.5s-3.358-7.5-7.5-7.5z"/></g></svg>