<svg width="300" height="300" viewBox="0 0 300 300" fill="none" xmlns="http://www.w3.org/2000/svg">
<rect width="300" height="300" rx="150" fill="#282728"/>
<path fill-rule="evenodd" clip-rule="evenodd" d="M93.9129 154.588L154.321 93.4404C158.425 89.2859 163.886 87.0015 169.707 87.0015C175.524 87.0015 180.984 89.2837 185.084 93.4382L189.791 98.2023L199.206 88.672L194.499 83.9079C187.888 77.2152 179.083 73.5293 169.703 73.5293C160.326 73.5315 151.52 77.2173 144.908 83.9122L84.5 145.058L93.9129 154.588Z" fill="white"/>
<path fill-rule="evenodd" clip-rule="evenodd" d="M174.735 113.752L165.276 104.236L104.584 165.293C96.061 173.867 82.1935 173.869 73.6728 165.297C65.1499 156.723 65.1499 142.77 73.6728 134.197L126.044 81.514L116.584 72L64.2153 124.683C50.4771 138.503 50.4771 160.993 64.2153 174.811C70.8584 181.494 79.7042 185.176 89.1251 185.176C98.5481 185.176 107.398 181.492 114.041 174.809L174.735 113.752Z" fill="white"/>
<path fill-rule="evenodd" clip-rule="evenodd" d="M234.783 125.187C228.142 118.504 219.296 114.824 209.871 114.824C200.448 114.826 191.598 118.506 184.954 125.191L124.265 186.248L133.72 195.764L194.414 134.706C202.939 126.132 216.805 126.134 225.325 134.704C229.447 138.85 231.716 144.369 231.716 150.251C231.716 156.134 229.447 161.656 225.325 165.802L172.956 218.486L182.416 228L234.783 175.319C248.523 161.498 248.523 139.008 234.783 125.187Z" fill="white"/>
<path fill-rule="evenodd" clip-rule="evenodd" d="M205.087 145.412L144.68 206.559C136.195 215.144 122.396 215.148 113.915 206.562L109.209 201.797L99.7939 211.328L104.5 216.092C111.112 222.785 119.916 226.47 129.299 226.47C138.675 226.468 147.479 222.782 154.093 216.088L214.5 154.942L205.087 145.412Z" fill="white"/>
</svg>
