<?xml version="1.0" encoding="utf-8"?>
<!-- Generator: Adobe Illustrator 27.5.0, SVG Export Plug-In . SVG Version: 6.00 Build 0)  -->
<svg version="1.1" id="Capa_1" xmlns="http://www.w3.org/2000/svg" xmlns:xlink="http://www.w3.org/1999/xlink" x="0px" y="0px"
	 viewBox="0 0 512 512" style="enable-background:new 0 0 512 512;" xml:space="preserve">
<style type="text/css">
	.st0{fill:#F9F7F8;}
	.st1{fill:#2797BD;}
	.st2{fill:#E5E1E5;}
	.st3{fill:none;stroke:#000000;stroke-width:15;stroke-linecap:round;stroke-linejoin:round;stroke-miterlimit:10;}
</style>
<g>
	<g>
		<path class="st0" d="M494.5,256c0,137.2-101.3,247.5-238.5,247.5c-5,0-10,0.9-15,0.6C110.7,496.3,7.5,388.2,7.5,256
			S110.7,15.7,241,7.9c5-0.3,10,0.6,15,0.6C393.2,8.5,494.5,118.8,494.5,256z"/>
		<circle class="st1" cx="256" cy="256" r="203.4"/>
		<path class="st2" d="M256,7.5c-5,0-10,0.2-15,0.5c130.3,7.8,233.5,115.8,233.5,248S371.3,496.3,241,504c5,0.3,10,0.5,15,0.5
			c137.2,0,248.5-111.3,248.5-248.5S393.2,7.5,256,7.5z"/>
		<path class="st0" d="M375,245.8c3.6-4.2,3.2-10.5-1-14.1l-101.8-86.9c-9-7.8-21.8-12.6-31.1-5.6c-0.5,0.3-0.9,0.7-1.4,1.1
			L134,231.7c-4.2,3.6-4.6,9.9-1,14.1l19.6,22.7c3.6,4.2,9.9,4.6,14.1,1l64.2-55.6V368c0,5.5,4.5,10,10,10h30c5.5,0,10-4.5,10-10
			V213.8l54.7,47.3l9.6,6.3c4.2,3.6,10.5,3.2,14.1-1L375,245.8z"/>
		<g>
			<path class="st2" d="M378,231.7l-105.6-91.5c-9-7.8-22-8.1-31.4-1.1c0.5,0.3,0.9,0.7,1.4,1.1L348,231.7c4.2,3.6,4.6,9.9,1,14.1
				l-13.3,15.4l9.6,8.3c4.2,3.6,10.5,3.2,14.1-1l19.6-22.7C382.6,241.6,382.1,235.3,378,231.7z"/>
		</g>
	</g>
	<g>
		<path class="st3" d="M94.4,67.2C137.9,30,194.3,7.5,256,7.5c137.2,0,248.5,111.3,248.5,248.5S393.2,504.5,256,504.5
			S7.5,393.2,7.5,256c0-63.6,23.9-121.7,63.2-165.6"/>
		<path class="st3" d="M377.7,419c-33.9,25.4-76.1,40.4-121.7,40.4c-112.4,0-203.4-91.1-203.4-203.4S143.6,52.6,256,52.6
			s203.4,91,203.4,203.4c0,54.7-21.6,104.4-56.7,140.9"/>
		<path class="st3" d="M231,329.3v38.6c0,5.5,4.5,10,10,10h30c5.5,0,10-4.5,10-10V213.8l64.2,55.6c4.2,3.6,10.5,3.2,14.1-1
			l19.6-22.7c3.6-4.2,3.2-10.5-1-14.1l-105.6-91.5c-9.4-8.1-23.3-8.1-32.7,0L134,231.7c-4.2,3.6-4.6,9.9-1,14.1l19.6,22.7
			c3.6,4.2,9.9,4.6,14.1,1l64.2-55.6v82.7"/>
	</g>
</g>
</svg>
