<svg viewBox="0 0 512 512" xmlns="http://www.w3.org/2000/svg" xmlns:xlink="http://www.w3.org/1999/xlink"><linearGradient id="linear-gradient" gradientUnits="userSpaceOnUse" x1="331.86" x2="413.76" y1="144.42" y2="144.42"><stop offset="0" stop-color="#cacfdd"/><stop offset="1" stop-color="#eef0f1"/></linearGradient><linearGradient id="linear-gradient-2" x1="84.53" x2="176.59" xlink:href="#linear-gradient" y1="221.55" y2="221.55"/><linearGradient id="linear-gradient-3" x1="169.14" x2="227.41" xlink:href="#linear-gradient" y1="221.55" y2="221.55"/><linearGradient id="linear-gradient-4" x1="220.46" x2="295.22" xlink:href="#linear-gradient" y1="221.55" y2="221.55"/><g isolation="isolate"><g id="Motion_Animation" data-name="Motion Animation"><path d="m69.11 119.89h344.65v196.31h-344.65z" fill="#f5f5f5"/><path d="m413.76 316.19h-344.65v107.2a11.64 11.64 0 0 0 11.64 11.61h321.38a11.63 11.63 0 0 0 11.63-11.63z" fill="#dee1ec"/><path d="m416.76 319.19h-350.65v-202.3h350.65zm-344.65-6h338.65v-190.3h-338.65z" fill="#5e6175"/><path d="m402.13 438h-321.38a14.65 14.65 0 0 1 -14.64-14.63v-110.18h350.65v110.2a14.64 14.64 0 0 1 -14.63 14.61zm-330-118.83v104.2a8.65 8.65 0 0 0 8.62 8.63h321.38a8.64 8.64 0 0 0 8.63-8.63v-104.18z" fill="#5e6175"/><path d="m129.63 370.93h-22.53a7.36 7.36 0 1 1 0-14.72h22.53a7.36 7.36 0 1 1 0 14.72z" fill="#dee1ec"/><path d="m129.63 399.08h-22.53a7.36 7.36 0 0 1 0-14.72h22.53a7.36 7.36 0 1 1 0 14.72z" fill="#e1830e"/><path d="m129.63 373.93h-22.53a10.36 10.36 0 1 1 0-20.72h22.53a10.36 10.36 0 1 1 0 20.72zm-22.53-14.72a4.36 4.36 0 1 0 0 8.72h22.53a4.36 4.36 0 1 0 0-8.72z" fill="#5e6175"/><path d="m129.63 402.08h-22.53a10.36 10.36 0 0 1 0-20.72h22.53a10.36 10.36 0 1 1 0 20.72zm-22.53-14.72a4.36 4.36 0 0 0 0 8.72h22.53a4.36 4.36 0 1 0 0-8.72z" fill="#5e6175"/><path d="m157.15 349.49h225.81v28.15h-225.81z" fill="#f5f5f5"/><path d="m157.15 377.64h225.81v28.15h-225.81z" fill="#f5f5f5"/><path d="m157.15 377.64h155.22v28.15h-155.22z" fill="#e1830e"/><path d="m157.15 349.49h195.68v28.15h-195.68z" fill="#dee1ec"/><path d="m386 380.64h-231.85v-34.15h231.85zm-225.81-6h219.81v-22.15h-219.85z" fill="#5e6175"/><path d="m386 408.8h-231.85v-34.16h231.85zm-225.81-6h219.81v-22.16h-219.85z" fill="#5e6175"/><path d="m214.31 330.73v11.27l7.51 7.5 7.5-7.5v-11.27z" fill="#f5f5f5"/><path d="m221.82 353.73-10.51-10.5v-15.5h21v15.5zm-4.51-13 4.51 4.51 4.5-4.51v-7h-9z" fill="#5e6175"/><path d="m218.82 349.49h6v56.31h-6z" fill="#5e6175"/><path d="m402.13 83.58h-321.38a11.64 11.64 0 0 0 -11.64 11.64v24.67h344.65v-24.67a11.64 11.64 0 0 0 -11.63-11.64z" fill="#5e6175"/><path d="m416.76 122.89h-350.65v-27.67a14.66 14.66 0 0 1 14.64-14.64h321.38a14.65 14.65 0 0 1 14.63 14.64zm-344.65-6h338.65v-21.67a8.65 8.65 0 0 0 -8.63-8.64h-321.38a8.66 8.66 0 0 0 -8.64 8.64z" fill="#5e6175"/><circle cx="112.58" cy="101.74" fill="#f5f5f5" r="6.32"/><circle cx="90.39" cy="101.74" fill="#f5f5f5" r="6.32"/><path d="m413.76 95.22v110c-46.77 1.42-85.21-38.89-81.67-85.33a79 79 0 0 1 11.61-36.31h58.43a11.63 11.63 0 0 1 11.63 11.64z" fill="url(#linear-gradient)" mix-blend-mode="multiply"/><circle cx="411.79" cy="125.34" fill="#f5f5f5" r="64.21"/><path d="m411.79 192.55a67.21 67.21 0 1 1 67.21-67.21 67.29 67.29 0 0 1 -67.21 67.21zm0-128.42a61.21 61.21 0 1 0 61.21 61.21 61.28 61.28 0 0 0 -61.21-61.21z" fill="#5e6175"/><path d="m437 117.22-32.82-19a8.31 8.31 0 0 0 -12.47 7.2v37.9a8.31 8.31 0 0 0 12.47 7.2l32.82-18.9a8.32 8.32 0 0 0 0-14.4z" fill="#e1830e"/><g fill="#5e6175"><path d="m428.32 438.23h6v18.76h-6z" transform="matrix(.707 -.707 .707 .707 -190.17 436.09)"/><path d="m434.52 422.5h18.76v6h-18.76z"/><path d="m407.36 451.31h6v18.76h-6z"/><path d="m67.09 45.61a12.5 12.5 0 0 1 16.91-5.24c9.91 5.22 8.41 19.74-2.11 23a12.52 12.52 0 0 1 -14.8-17.76zm5.31 2.8a6.51 6.51 0 1 0 8.79-2.73 6.51 6.51 0 0 0 -8.79 2.73z"/><path d="m41.51 96a8.52 8.52 0 1 1 7.55-4.55 8.53 8.53 0 0 1 -7.55 4.55zm0-11a2.51 2.51 0 0 0 -2.23 1.35 2.52 2.52 0 1 0 2.23-1.35z"/></g><circle cx="158.43" cy="221.55" fill="#dee1ec" r="40.7"/><path d="m199.13 221.55a40.68 40.68 0 0 1 -31.9 39.74 57.49 57.49 0 0 1 0-79.48 40.71 40.71 0 0 1 31.9 39.74z" fill="url(#linear-gradient-2)" mix-blend-mode="multiply"/><path d="m154.43 265.07a43.81 43.81 0 0 1 -6.35-1.05l1.42-5.83a37.36 37.36 0 0 0 5.47.9zm10.7-.34-.92-5.92c1.08-.17 2.17-.39 3.24-.65l1.43 5.82c-1.23.31-2.49.56-3.75.75zm-27.07-4.51a42.81 42.81 0 0 1 -5.45-3.41l3.55-4.84a37 37 0 0 0 4.7 2.95zm-13.24-10.74a44.57 44.57 0 0 1 -3.74-5.24l5.12-3.12a37.87 37.87 0 0 0 3.23 4.52zm-8.14-15a41.89 41.89 0 0 1 -1.44-6.27l5.93-.91a36.88 36.88 0 0 0 1.24 5.41zm4.21-16.42-6-.55a44.29 44.29 0 0 1 1.06-6.35l5.83 1.43a37.41 37.41 0 0 0 -.89 5.46zm4.2-14.1-5.31-2.81a44 44 0 0 1 3.42-5.45l4.84 3.56a37 37 0 0 0 -2.95 4.74zm9.29-11.43-3.83-4.61a43 43 0 0 1 5.24-3.74l3.11 5.13a37.79 37.79 0 0 0 -4.52 3.21zm12.94-7-1.76-5.74a43.74 43.74 0 0 1 6.27-1.43l.9 5.93a37.48 37.48 0 0 0 -5.41 1.23zm20.13-.57a37.79 37.79 0 0 0 -5.45-.96l.57-6a44.18 44.18 0 0 1 6.34 1.07z" fill="#a9afc4"/><path d="m154.43 265.07a43.81 43.81 0 0 1 -6.35-1.05l1.42-5.83a37.36 37.36 0 0 0 5.47.9zm10.7-.34-.92-5.92c1.08-.17 2.17-.39 3.24-.65l1.43 5.82c-1.23.31-2.49.56-3.75.75zm-27.07-4.51a42.81 42.81 0 0 1 -5.45-3.41l3.55-4.84a37 37 0 0 0 4.7 2.95zm-13.24-10.74a44.57 44.57 0 0 1 -3.74-5.24l5.12-3.12a37.87 37.87 0 0 0 3.23 4.52zm-8.14-15a41.89 41.89 0 0 1 -1.44-6.27l5.93-.91a36.88 36.88 0 0 0 1.24 5.41zm4.21-16.42-6-.55a44.29 44.29 0 0 1 1.06-6.35l5.83 1.43a37.41 37.41 0 0 0 -.89 5.46zm4.2-14.1-5.31-2.81a44 44 0 0 1 3.42-5.45l4.84 3.56a37 37 0 0 0 -2.95 4.74zm9.29-11.43-3.83-4.61a43 43 0 0 1 5.24-3.74l3.11 5.13a37.79 37.79 0 0 0 -4.52 3.21zm12.94-7-1.76-5.74a43.74 43.74 0 0 1 6.27-1.43l.9 5.93a37.48 37.48 0 0 0 -5.41 1.23zm20.13-.57a37.79 37.79 0 0 0 -5.45-.96l.57-6a44.18 44.18 0 0 1 6.34 1.07z" fill="#a9afc4"/><circle cx="208.86" cy="221.55" fill="#dee1ec" r="40.7"/><path d="m249.56 221.55a40.68 40.68 0 0 1 -31.9 39.74 57.49 57.49 0 0 1 0-79.48 40.71 40.71 0 0 1 31.9 39.74z" fill="url(#linear-gradient-3)" mix-blend-mode="multiply"/><circle cx="259.29" cy="221.55" fill="#dee1ec" r="40.7"/><path d="m255.29 265.07a43.81 43.81 0 0 1 -6.35-1.05l1.42-5.83a37.36 37.36 0 0 0 5.47.9zm10.7-.34-.92-5.92c1.08-.17 2.17-.39 3.24-.65l1.43 5.82c-1.23.31-2.49.56-3.74.75zm-27.07-4.51a43.53 43.53 0 0 1 -5.45-3.41l3.53-4.81a37 37 0 0 0 4.7 2.95zm-13.24-10.74a44.57 44.57 0 0 1 -3.74-5.24l5.12-3.12a37.87 37.87 0 0 0 3.23 4.52zm-8.14-15a41.89 41.89 0 0 1 -1.44-6.27l5.93-.91a36.88 36.88 0 0 0 1.24 5.41zm4.21-16.42-6-.55a44.29 44.29 0 0 1 1.06-6.35l5.83 1.43a37.41 37.41 0 0 0 -.89 5.46zm4.25-14.06-5.31-2.81a44 44 0 0 1 3.42-5.45l4.84 3.56a37 37 0 0 0 -2.95 4.7zm9.29-11.43-3.83-4.61a43 43 0 0 1 5.24-3.74l3.11 5.13a37.79 37.79 0 0 0 -4.57 3.17zm12.94-7-1.76-5.74a43.57 43.57 0 0 1 6.28-1.43l.89 5.93a37.48 37.48 0 0 0 -5.46 1.19zm20.13-.57a37.79 37.79 0 0 0 -5.48-.93l.57-6a44.18 44.18 0 0 1 6.34 1.07z" fill="#a9afc4"/><path d="m204.86 265.07a44 44 0 0 1 -6.35-1.05l1.42-5.83a37.36 37.36 0 0 0 5.47.9zm10.7-.34-.92-5.93c1.08-.16 2.17-.38 3.24-.64l1.43 5.82c-1.24.31-2.5.56-3.75.75zm-27.06-4.51a42.93 42.93 0 0 1 -5.46-3.41l3.55-4.84a37.73 37.73 0 0 0 4.7 2.95zm-13.25-10.74a43.75 43.75 0 0 1 -3.74-5.24l5.12-3.12a37.87 37.87 0 0 0 3.23 4.52zm-8.14-15a41.89 41.89 0 0 1 -1.44-6.27l5.93-.91a36.88 36.88 0 0 0 1.24 5.41zm4.22-16.42-6-.55a43.92 43.92 0 0 1 1.06-6.34l5.83 1.42a36.09 36.09 0 0 0 -.89 5.46zm4.19-14.1-5.31-2.81a44 44 0 0 1 3.42-5.45l4.84 3.56a37 37 0 0 0 -2.95 4.74zm9.29-11.43-3.81-4.62a43.28 43.28 0 0 1 5.24-3.74l3.11 5.13a39 39 0 0 0 -4.54 3.22zm12.94-7-1.75-5.75a43.14 43.14 0 0 1 6.27-1.43l.9 5.93a37.48 37.48 0 0 0 -5.42 1.24zm20.13-.57a37.79 37.79 0 0 0 -5.48-.93l.56-6a44.31 44.31 0 0 1 6.35 1.07z" fill="#a9afc4"/><path d="m300 221.55a40.71 40.71 0 0 1 -32.16 39.8 57.45 57.45 0 0 1 0-79.6 40.71 40.71 0 0 1 32.16 39.8z" fill="url(#linear-gradient-4)" mix-blend-mode="multiply"/><circle cx="314.17" cy="221.55" fill="#f5f5f5" r="45.48"/><path d="m314.17 270a48.48 48.48 0 1 1 48.48-48.48 48.53 48.53 0 0 1 -48.48 48.48zm0-90.95a42.48 42.48 0 1 0 42.48 42.47 42.52 42.52 0 0 0 -42.48-42.44z" fill="#5e6175"/></g></g></svg>