<svg id="light" enable-background="new 0 0 24 24" viewBox="0 0 24 24" xmlns="http://www.w3.org/2000/svg"><g><g><path d="m16.62 4.19c-.083 0-.166-.021-.243-.062-2.656-1.477-6.098-1.477-8.754 0-.24.132-.545.047-.681-.194-.133-.243-.046-.546.195-.681 2.955-1.639 6.771-1.639 9.727 0 .241.135.328.438.194.681-.092.164-.262.256-.438.256z"/></g></g><g><g><path d="m4.7 18.56c-.142 0-.283-.061-.382-.178-1.495-1.773-2.318-4.039-2.318-6.382 0-.19.009-.37.019-.559.014-.276.25-.484.526-.487.275.015.488.236.474.512l-.001.026c-.009.172-.018.335-.018.508 0 2.138.72 4.121 2.082 5.737.179.211.151.526-.06.704-.093.08-.208.119-.322.119z"/></g></g><g><g><path d="m2.847 12c-.549 0-1.044-.262-1.334-.71l-1.127-1.741c-.358-.554-.473-1.208-.32-1.841.158-.657.581-1.215 1.19-1.567l5.171-2.995h.001c.413-.242.927-.181 1.271.153.322.312.393.767.181 1.159l-3.631 6.73c-.262.484-.76.787-1.332.81-.023.001-.047.002-.07.002zm3.831-8.422.251.433-5.171 2.995c-.371.215-.627.547-.72.936-.088.364-.021.742.188 1.064l1.127 1.741c.108.166.289.293.524.252.216-.009.399-.115.491-.285l3.632-6.731z"/></g></g><g><g><path d="m21.153 12c-.023 0-.047-.001-.07-.002-.572-.022-1.07-.325-1.332-.81l-3.632-6.73c-.211-.392-.14-.847.182-1.159.345-.333.857-.395 1.271-.153h.001l5.171 2.995c.609.353 1.032.91 1.19 1.567.152.633.038 1.287-.32 1.841l-1.127 1.741c-.29.448-.785.71-1.334.71zm-4.117-8c-.027 0-.041.02-.041.02l3.637 6.694c.092.17.275.276.491.285.238.021.416-.087.524-.252l1.127-1.741c.209-.322.275-.7.188-1.064-.093-.389-.349-.721-.72-.936l-5.171-2.995c-.013-.008-.025-.011-.035-.011z"/></g></g><g><g><path d="m14.489 21.77c-.235 0-.445-.168-.49-.407-.051-.271.128-.533.398-.584 2.839-.533 4.603-2 4.603-3.828 0-2.456-4.072-4.95-7-4.95s-7 2.494-7 4.95c0 1.828 1.764 3.295 4.603 3.828.271.051.449.312.398.584-.051.271-.317.445-.584.398-3.341-.627-5.417-2.471-5.417-4.811 0-3.064 4.507-5.95 8-5.95s8 2.886 8 5.95c0 2.34-2.076 4.184-5.417 4.811-.031.006-.062.009-.094.009z"/></g></g><g><g><path d="m12 15c-.876 0-1.688-.524-1.777-.584-.229-.153-.291-.462-.139-.692.15-.229.461-.293.692-.141.176.116.739.417 1.224.417.582 0 1.217-.412 1.223-.416.227-.152.539-.093.693.139.153.229.091.54-.139.693-.089.06-.901.584-1.777.584z"/></g></g><g><g><path d="m8 19c-2.173 0-3.357-.504-3.84-1.634-.108-.254.01-.548.264-.656.257-.109.548.01.656.264.204.477.721 1.026 2.92 1.026 1.854 0 3.758-.938 3.776-.947.251-.124.548-.022.671.224.123.247.023.548-.224.671-.085.042-2.129 1.052-4.223 1.052z"/></g></g><g><g><path d="m16 19c-2.094 0-4.138-1.01-4.224-1.053-.247-.123-.347-.424-.224-.671.124-.246.421-.348.671-.224.019.01 1.923.948 3.777.948 2.199 0 2.716-.549 2.92-1.026.108-.254.4-.373.656-.264.254.108.372.402.264.656-.483 1.13-1.667 1.634-3.84 1.634z"/></g></g><g><g><path d="m12 18c-.276 0-.5-.224-.5-.5v-3c0-.276.224-.5.5-.5s.5.224.5.5v3c0 .276-.224.5-.5.5z"/></g></g><g><g><path d="m6.5 12c-.161 0-.319-.078-.416-.223-.153-.229-.091-.54.139-.693l2.376-1.584-2.376-1.584c-.23-.153-.292-.464-.139-.693.154-.23.466-.29.693-.139l3 2c.139.093.223.249.223.416s-.084.323-.223.416l-3 2c-.085.057-.181.084-.277.084z"/></g></g><g><g><path d="m17.5 12c-.096 0-.192-.027-.277-.084l-3-2c-.139-.093-.223-.249-.223-.416s.084-.323.223-.416l3-2c.228-.152.539-.092.693.139.153.229.091.54-.139.693l-2.376 1.584 2.376 1.584c.229.153.292.464.139.693-.097.145-.255.223-.416.223z"/></g></g><g><g><path d="m19.3 18.56c-.114 0-.229-.039-.322-.118-.211-.178-.238-.493-.06-.704 1.362-1.617 2.082-3.6 2.082-5.738 0-.173-.009-.336-.018-.508l.997-.077-.499.025.501.001c.01.189.019.369.019.559 0 2.343-.823 4.609-2.318 6.382-.099.117-.241.178-.382.178z"/></g></g><g><g><path d="m12 24c-1.654 0-3-1.346-3-3v-2.67c0-.276.224-.5.5-.5s.5.224.5.5v2.67c0 1.103.897 2 2 2s2-.897 2-2v-2.67c0-.276.224-.5.5-.5s.5.224.5.5v2.67c0 1.654-1.346 3-3 3z"/></g></g></svg>