<svg clip-rule="evenodd" fill-rule="evenodd" height="256" image-rendering="optimizeQuality" shape-rendering="geometricPrecision" text-rendering="geometricPrecision" viewBox="0 0 32974 32974" width="256" xmlns="http://www.w3.org/2000/svg"><g id="Layer_x0020_1"><path d="m4821 30115h1654c1891 0 1891-2859 0-2859h-4480c-1891 0-1891-2859 0-2859h4389c1891 0 1891-2859 0-2859h-1576c-1892 0-1892-2860 0-2860h7850 2792 4257c1891 0 1891 2860 0 2860h-788c-1891 0-1891 2859 0 2859h2149c1891 0 1891 2859 0 2859h-2240c-1891 0-1891 2859 0 2859h689c1891 0 1891 2859 0 2859h-4067-2792-7837c-1891 0-1891-2859 0-2859z" fill="#ebebeb"/><path d="m13376 18678h14723c1892 0 1891 2860 0 2860h-1468c-1998 0-2174 2859 219 2859h4129c1891 0 1891 2859 0 2859h-5948c-1891 0-1891 2859 0 2859h1439c1891 0 1891 2859 0 2859h-13094-789c-1891 0-1891-2859 0-2859h789c1904 0 1983-2859 0-2859h-3367c-1892 0-1892-2859 0-2859h2440c2094 64 2342-2859 0-2859h-1491c-1891 0-1891-2860 0-2860zm16567 11437h-8c-787 0-1430 643-1430 1430 0 786 643 1429 1430 1429h8c786 0 1430-643 1430-1429 0-787-644-1430-1430-1430z" fill="#d6d6d6"/><path d="m1297 30364 307 306m834-306-306 306m-528 528-307 307m835-307 306 307" fill="none" stroke="#105286" stroke-width="515.221"/><path d="m4998 6478h22978v14669c0 1020-834 1854-1853 1854h-21125z" fill="#fff"/><path d="m5571 7050v15378h20551c704 0 1282-577 1282-1281v-14097z" fill="#ffd027"/><path d="m9479 6478h3410m6183 0h2589m6315 14669c0 1020-834 1854-1853 1854h-7688m-10975 0h-2462v-16523h1129" fill="none" stroke="#105286" stroke-width="515.221"/><path d="m25246 2435c1501 0 2730 1228 2730 2730v15982c0-1501-1229-2729-2730-2729-1501 0-2730 1228-2730 2729v-15982c0-1502 1229-2730 2730-2730z" fill="#fff"/><path d="m23305 18216c557-371 1225-587 1941-587s1384 216 1941 587v-13051c0-1067-875-1942-1941-1942s-1941 875-1941 1942z" fill="#e6e6e6"/><path d="m25246 2435c1501 0 2730 1228 2730 2730v15982c0-1501-1229-2729-2730-2729-1501 0-2730 1228-2730 2729v-15982c0-1502 1229-2730 2730-2730z" fill="none" stroke="#105286" stroke-width="515.221"/><g id="_362865024"><g fill="#fff"><path d="m6877 3741h1856v8202h-1856z"/><path d="m6877 12035 546 1402h764l546-1402z"/><path d="m7423 13437 382 1255 383-1255z"/></g><path d="m7329 4160h953v7267h-953z" fill="#ff576b"/><path d="m8733 12035-546 1402h-764l-546-1402" fill="none" stroke="#105286" stroke-width="515.221"/><path d="m7423 13437 382 1770 383-1770" fill="none" stroke="#105286" stroke-width="515.221"/><path d="m7451 12342h708l-208 768h-292z" fill="#ffda54"/><path d="m6877 3741h1856v8202h-1856z" fill="none" stroke="#105286" stroke-width="515.221"/><path d="m6877 3741h1856v-788c0-285-214-518-477-518h-902c-263 0-477 233-477 518z" fill="#fff"/><path d="m6877 3741h1856v-788c0-285-214-518-477-518h-902c-263 0-477 233-477 518z" fill="none" stroke="#105286" stroke-width="515.221"/><path d="m7304 3327h1002v-142c0-148-116-269-257-269h-487c-142 0-258 121-258 269z" fill="#ff576b"/></g><path d="m13644 18879c252 40 496 106 728 195l622-699c222 128 444 256 665 384l-294 889c195 159 374 337 532 533l889-295c128 222 256 443 385 665l-700 622c89 233 155 476 195 729l917 189v768l-917 189c-40 252-106 496-195 728l700 622c-129 222-257 444-385 666l-889-295c-158 195-337 374-532 532l294 890c-221 128-443 256-665 384l-622-700c-232 89-476 155-728 195l-189 917c-256 0-513 0-769 0l-189-916c-252-40-496-106-728-195l-622 699c-222-128-444-256-665-384l294-889c-195-159-374-338-532-533l-889 295c-128-222-256-444-385-666l700-622c-89-232-155-476-195-728l-917-189c0-256 0-512 0-768l917-189c40-253 106-497 195-729l-700-622c129-222 257-443 385-665l889 295c158-196 337-374 532-533l-294-889c221-128 443-256 665-384l622 699c232-89 476-155 728-195l189-917h769zm-573 1438c1191 0 2158 966 2158 2158s-967 2158-2158 2158c-1192 0-2159-966-2159-2158s967-2158 2159-2158z" fill="#fff"/><path d="m13644 18879c252 40 496 106 728 195l622-699c222 128 444 256 665 384l-294 889c195 159 374 337 532 533l889-295c128 222 256 443 385 665l-700 622c89 233 155 476 195 729l917 189v768l-917 189c-40 252-106 496-195 728l700 622c-129 222-257 444-385 666l-889-295c-158 195-337 374-532 532l294 890c-221 128-443 256-665 384l-622-700c-232 89-476 155-728 195l-189 917c-256 0-513 0-769 0l-189-916c-252-40-496-106-728-195l-622 699c-222-128-444-256-665-384l294-889c-195-159-374-338-532-533l-889 295c-128-222-256-444-385-666l700-622c-89-232-155-476-195-728l-917-189c0-256 0-512 0-768l917-189c40-253 106-497 195-729l-700-622c129-222 257-443 385-665l889 295c158-196 337-374 532-533l-294-889c221-128 443-256 665-384l622 699c232-89 476-155 728-195l189-917h769zm-573 1438c1191 0 2158 966 2158 2158s-967 2158-2158 2158c-1192 0-2159-966-2159-2158s967-2158 2159-2158z" fill="none" stroke="#105286" stroke-width="515.221"/><circle cx="15942" cy="6478" fill="#fff" r="2192"/><circle cx="15942" cy="6478" fill="none" r="2192" stroke="#105286" stroke-width="515.221"/><circle cx="15942" cy="6478" fill="#53b4ed" r="1448"/><path d="m15942 8669v2212h-3167v1269" fill="none" stroke="#105286" stroke-width="515.221"/><path d="m15942 10881h3167v1269" fill="none" stroke="#105286" stroke-width="515.221"/><g id="_362879304"><path d="m17202 12421h3813v3034h-3813z" fill="#fff"/><path d="m17202 12421h3813v3034h-3813z" fill="none" stroke="#105286" stroke-width="515.221"/><path d="m17865 13049h2489v1777h-2489z" fill="#00dcab"/></g><g id="_362892120"><path d="m10868 12421h3813v3034h-3813z" fill="#fff"/><path d="m10868 12421h3813v3034h-3813z" fill="none" stroke="#105286" stroke-width="515.221"/><path d="m11530 13049h2489v1777h-2489z" fill="#00dcab"/></g><path d="m20522 25593c240 86 460 215 651 377l946-278c158 274 316 547 474 820l-713 681c22 122 33 248 33 376s-11 254-33 376l713 681c-158 273-316 546-474 820l-946-278c-191 162-411 291-651 377l-233 957c-315 0-631 0-947 0l-232-957c-241-86-461-215-651-377l-947 278c-158-274-316-547-473-820l713-681c-22-122-34-248-34-376s12-254 34-376l-713-681c157-273 315-546 473-820l947 278c190-162 410-291 651-377l232-957h947zm-706 1220c417 0 756 339 756 756s-339 756-756 756c-418 0-756-339-756-756s338-756 756-756z" fill="#fff"/><g fill="none" stroke="#105286" stroke-width="515.221"><path d="m20522 25593c240 86 460 215 651 377l946-278c158 274 316 547 474 820l-713 681c22 122 33 248 33 376s-11 254-33 376l713 681c-158 273-316 546-474 820l-946-278c-191 162-411 291-651 377l-233 957c-315 0-631 0-947 0l-232-957c-241-86-461-215-651-377l-947 278c-158-274-316-547-473-820l713-681c-22-122-34-248-34-376s12-254 34-376l-713-681c157-273 315-546 473-820l947 278c190-162 410-291 651-377l232-957h947zm-706 1220c417 0 756 339 756 756s-339 756-756 756c-418 0-756-339-756-756s338-756 756-756z"/><path d="m30951 893 306 306m835-306-307 306m-528 528-306 307m834-307 307 307"/><path d="m30951 15018 306 306m835-306-307 306m-528 529-306 306m834-306 307 306"/><path d="m30951 28112 306 307m835-307-307 307m-528 528-306 307m834-307 307 307"/><path d="m1297 14962 307 306m834-306-306 306m-528 528-307 307m835-307 306 307"/><path d="m1297 893 307 306m834-306-306 306m-528 528-307 307m835-307 306 307"/><path d="m15371 893 307 306m834-306-306 306m-528 528-307 307m835-307 306 307"/><circle cx="20270" cy="3444" r="642"/><circle cx="30549" cy="8853" r="642"/><circle cx="30472" cy="22378" r="642"/><circle cx="26066" cy="28483" r="642"/><circle cx="9729" cy="28483" r="642"/><circle cx="2186" cy="22842" r="642"/><circle cx="1799" cy="8931" r="642"/><circle cx="11460" cy="3444" r="642"/><path d="m4985 25293 306 306m835-306-307 306m-528 529-306 306m834-306 307 306"/></g></g><g id="Layer_x0020_2"><path d="m0 0h32974v32974h-32974z" fill="none"/></g></svg>