<svg id="Layer_1" enable-background="new 0 0 512 512" height="512" viewBox="0 0 512 512" width="512" xmlns="http://www.w3.org/2000/svg"><g><path d="m308.974 113.031c-.599.031-1.096.169-1.521.35-.417.469-.816.942-1.197 1.42.031.669-.57 2.633 3.384 3.474 3.961.843 7.819 2.387 5.268 3.381-1.665.649-7.776-1.25-10.84-3.665-1.969 3.416-2.844 7.1-1.9 11.249 8 3.076 17.094 3.282 22.079-1.778 4.123-4.186 1.069-11.036 1.069-11.036s-10.274-3.705-16.342-3.395z" fill="#e7cfb8"/><path d="m325.54 99.177c-4.539 4.164-9.663 6.161-14.139 10.248 3.207-.146 7.061.646 11.204 3.003 4.366 2.484 6.864 9.676 13.031 14.844 6.187 5.185 28.898 7.688 28.898 7.688-5.699-9.973-19.721-29.461-38.994-35.783z" fill="#ddb998"/><path d="m306.255 114.801c.381-.477.781-.951 1.197-1.42-.785.334-1.223.858-1.197 1.42z" fill="#e7cfb8"/><path d="m162.268 232.71c.506 28.41 10.124 57.905 16.563 84.331 2.707 11.109 4.311 20.731 4.79 28.205.594 9.273-.55 15.232-3.521 16.523-5.367 2.333-6.383 4.015-7.581 7.76-1.199 3.745 1.109 7.205 2.568 7.03.583 1.575 3.823 4.921 5.164 4.221 1.109 1.75 6.959 3.386 8.826 2.453s13.197-6.928 14.773-10.195c.836-1.734 2.382-6.832 3.704-14.098 1.168-6.421 2.162-14.52 2.31-23.704.65-40.366 15.883-81.119 16.491-114.321.607-33.201-65.07-43.373-64.087 11.795z" fill="#dcbb9b"/><path d="m347.055 233.86c-.393-.452-.758-.902-1.186-1.355-12.956-13.703.466-53.299-7.115-81.558-16.471 10.21-48.581 9.95-54.805 11.308-.664 3.736-.973 7.385-.839 10.814.159 4.057.894 7.819 2.328 11.062 12.01 27.183 4.679 52.347 17.727 61.638 6.186 4.406 18.919 8.985 22.787 19.227 4.291 11.359-.664 15.215-1.784 17.064 0 0-.002.005-.003.007-1.838 1.031-3.364 1.998-4.355 2.691-4.267 2.988-7.928 9.35-2.448 9.35-2.378 2.988-.727 8.193 3.896 6.362-.319 3.18 3.92 4.241 8.328 1.735 4.462 4.555 11.881-2.998 15.05-7.936.002-.002 3.202-3.699 4.833-9.178.028-.091.052-.181.079-.273.098-.343.211-.669.294-1.025 2.172-9.233 8.842-36.59-2.787-49.933z" fill="#dcbb9b"/><g fill="#e7cfb8"><path d="m402.935 256.788c-.393-.451-.758-.902-1.186-1.354-17.082-18.068 11.728-81.164-22.264-103.913-29.936-20.034-61.158 26.423-59.983 56.364v.001c.159 4.056.894 7.819 2.328 11.061 12.01 27.183 24.167 40.459 37.216 49.75 6.187 4.405 18.919 8.985 22.787 19.226 4.29 11.359-.664 15.215-1.784 17.065l-.003.006c-1.838 1.031-3.364 1.998-4.355 2.692-4.267 2.988-7.928 9.35-2.448 9.35-2.378 2.988-.727 8.194 3.896 6.362-.319 3.181 3.92 4.241 8.328 1.735 4.462 4.554 11.881-2.998 15.05-7.936.002-.002 3.203-3.699 4.833-9.178.028-.091.052-.181.079-.272.098-.343.211-.669.295-1.025 2.171-9.233 8.84-36.59-2.789-49.934z"/><path d="m242.528 147.984c-7.658 2.789-13.34 4.234-16.161 3.599-15.113-3.4-18.699-13.503-18.699-13.503l-48.547 54.675s3.161 18.57 3.012 28.729c-.599 40.768 19.074 64.827 53.244 73.432 32.872-19.214 43.104-60.067 46.378-103.487 3.276-43.419-10.894-33.54-19.227-43.445z"/><path d="m327.074 123.086c-36.236 2.805-51.183 12.748-84.546 24.898 8.332 9.904 11.499 11.838 13.955 51.537s-20.102 72.906-41.105 95.395c8.9 2.241 18.729 3.491 29.503 3.647 44.016.638 71.102-39.113 108.885-64.471.019.012.032.024.052.036 3.951-2.706 24.35-17.198 30.369-28.835 7.521-14.542 10.482-33.379 8.387-37.565-3.772-7.534-21.534-48.046-65.5-44.642z"/><path d="m217.504 263.75c.506 28.41 10.124 41.83 16.562 68.256 3.366 13.815 5.033 30.293 4.938 42.633-.076 9.893-1.282 17.133-3.669 18.171-5.367 2.333-6.383 4.015-7.581 7.76-1.199 3.745 1.108 7.204 2.567 7.03.584 1.575 3.823 4.921 5.165 4.221 1.109 1.75 6.959 3.386 8.826 2.453s13.197-6.928 14.773-10.195c.958-1.986 2.854-13.145 4.266-25.979.911-8.278 1.624-17.246 1.747-24.921.649-40.366 15.883-68.022 16.491-101.224.609-33.202-65.068-43.373-64.085 11.795z"/></g><path d="m106.683 158.701c-9.034 43.869 7.362 38.551 7.362 38.551l28.39-82.801s-26.718.381-35.752 44.25z" fill="#5b5b52"/><path d="m103.292 223.839c-.048 9.301 26.663 33.385 53.714 27.217 27.051-6.169-53.61-47.157-53.714-27.217z" fill="#424237"/><path d="m149.937 183.515c-12.407 1.773-15.953-17.725-26.587-23.042-4.974-2.984-10.505-.942-14.089 2.99-.068 3.824.211 7.814.908 11.979 3.711 22.178-11.53 28.235-6.877 48.397 1.441 6.244 17.901-1.869 17.901-1.869s5.783 33.331 47.134 28.678c13.155-1.48 22.609-2.456 30.066-3.663 9.032-17.937 11.942-39.224 4.719-56.38-10.635-21.27-31.905-10.635-53.175-7.09z" fill="#5b5b52"/><path d="m109.261 163.463c3.584-3.932 9.115-5.974 14.089-2.99 10.635 5.317 14.18 24.815 26.587 23.042 21.269-3.545 42.539-14.18 53.174 7.09 7.223 17.156 4.313 38.443-4.719 56.38 10.655-1.724 17.23-3.922 24.659-8.744 9.24-5.998 64.769-51.434 27.988-98.971-42.239-54.595-140.662-38.263-141.778 24.193z" fill="#ebd7c4"/><path d="m251.04 139.269s-28.191-4.497-32.436 7.166c-13.801 37.921 18.543 91.731 29.344 90.492 10.802-1.241 32.774-72.201 3.092-97.658z" fill="#5b5b52"/><path d="m117.284 196.346c-.924 5.832 3.359 6.919 3.319 8.635-.137 5.842 5.485 4.804 6.215 1.931.777-3.057 4.717 1.309 7.063-4.242 2.617-6.194-15.376-14.028-16.597-6.324z" fill="#382a10"/><circle cx="178.226" cy="196.013" fill="#382a10" r="9.263"/><path d="m115.136 168.915c-2.572 2.062-3.89 6.101-3.036 9.549.979 3.952 4.531 6.181 8.128 4.246 4.022-2.165 5.561-8.002 3.361-12.088-1.87-3.472-5.652-3.953-8.453-1.707z" fill="#382a10"/><path d="m304.305 101.322c-33.283 15.901 11.876 42.129 25.653 28.143 7.775-7.893-2.353-15.092-15.272-14.431-3.017.154-4.133 2.588-.393 3.56 3.919 1.019 8.877 4.071 6.326 5.065-1.682.656-7.91-1.287-10.942-3.737-5.372-4.34 5.137-13.174 18.64-5.492 4.366 2.484 7.462 7.672 13.63 12.841 6.187 5.185 28.3 9.69 28.3 9.69-8.109-14.184-32.66-51.54-65.942-35.639z" fill="#e7cfb8"/></g></svg>