<svg id="Layer_1" enable-background="new 0 0 135 135" height="135" viewBox="0 0 135 135" width="135" xmlns="http://www.w3.org/2000/svg"><g><g><g><path d="m102.15 95.333c0 19.139-15.514 34.652-34.65 34.652s-34.65-15.514-34.65-34.652c0-19.137 15.514-54.314 34.65-54.314s34.65 35.177 34.65 54.314z" fill="#f9f9e4"/></g><g><path d="m67.5 41.019v88.967c19.137 0 34.65-15.514 34.65-34.652s-15.513-54.315-34.65-54.315z" fill="#e5e4c3"/></g><g><g><path d="m46.028 114.993c3.197 3.494 6.719 5.203 4.847 6.918-1.873 1.713-5.984.268-9.18-3.227-3.197-3.496-4.271-7.719-2.398-9.432 1.873-1.71 3.534 2.243 6.731 5.741z" fill="#e5e4c3"/></g><g><path d="m88.971 114.993c-3.197 3.494-6.719 5.203-4.848 6.918 1.874 1.713 5.984.268 9.181-3.227 3.197-3.496 4.271-7.719 2.398-9.432-1.873-1.71-3.534 2.243-6.731 5.741z" fill="#d8d593"/></g></g><g><path d="m67.5 131.485c-19.934 0-36.15-16.218-36.15-36.152 0-10.096 4.059-23.86 10.34-35.067 7.5-13.379 16.666-20.747 25.81-20.747s18.311 7.368 25.81 20.747c6.281 11.207 10.34 24.972 10.34 35.067 0 19.935-16.216 36.152-36.15 36.152zm0-88.966c-18.142 0-33.15 34.968-33.15 52.814 0 18.28 14.871 33.152 33.15 33.152s33.15-14.872 33.15-33.152c0-17.847-15.008-52.814-33.15-52.814z" fill="#33363a"/></g><g><path d="m87.852 104.304c-4.509 9.766-13.717 15.121-20.566 11.959s-3.667-8.914.842-18.68c4.508-9.766 8.634-19.848 15.484-16.686 6.849 3.163 8.747 13.643 4.24 23.407z" fill="#e5e4c3"/></g><g><path d="m83.611 80.897c-6.851-3.162-10.977 6.92-15.484 16.686-.213.461-.422.91-.627 1.352v17.416c6.828 2.957 15.891-2.379 20.352-12.047 4.507-9.764 2.609-20.244-4.241-23.407z" fill="#d8d593"/></g><g><circle cx="47.574" cy="67.671" fill="#e5e4c3" r="2.201"/></g><g><path d="m56.38 57.14c0 .477-.386.863-.862.863-.475 0-.86-.387-.86-.863 0-.471.386-.859.86-.859.476-.001.862.388.862.859z" fill="#e5e4c3"/></g><g><circle cx="51.02" cy="80.306" fill="#e5e4c3" r="1.244"/></g><g><circle cx="70.419" cy="121.388" fill="#d8d593" r="1.245"/></g><g><circle cx="64.562" cy="120.144" fill="#e5e4c3" r="1.244"/></g><g><circle cx="82.28" cy="61.507" fill="#d8d593" r="2.545"/></g><g><circle cx="89.499" cy="72.36" fill="#d8d593" r="2.489"/></g><g><circle cx="54.072" cy="105.728" fill="#e5e4c3" r="2.488"/></g></g><g><g><g><path d="m54.199 21.753h-10.451c-.829 0-1.5-.672-1.5-1.5v-15.238c0-.828.671-1.5 1.5-1.5h10.451c.829 0 1.5.672 1.5 1.5v15.238c0 .828-.671 1.5-1.5 1.5zm-8.951-3h7.451v-12.238h-7.451z" fill="#33363a"/></g></g><g><g><path d="m62.588 21.753c-.829 0-1.5-.672-1.5-1.5v-15.238c0-.828.671-1.5 1.5-1.5s1.5.672 1.5 1.5v15.238c0 .828-.671 1.5-1.5 1.5z" fill="#33363a"/></g><g><path d="m73.039 21.753c-.829 0-1.5-.672-1.5-1.5v-15.238c0-.828.671-1.5 1.5-1.5s1.5.672 1.5 1.5v15.238c0 .828-.671 1.5-1.5 1.5z" fill="#33363a"/></g><g><path d="m73.039 14.134h-10.451c-.829 0-1.5-.672-1.5-1.5s.671-1.5 1.5-1.5h10.451c.829 0 1.5.672 1.5 1.5s-.671 1.5-1.5 1.5z" fill="#33363a"/></g></g><g><g><g><path d="m91.252 14.134c-.829 0-1.5-.672-1.5-1.5v-6.119h-7.451v1.691c0 .828-.671 1.5-1.5 1.5s-1.5-.672-1.5-1.5v-3.191c0-.828.671-1.5 1.5-1.5h10.451c.829 0 1.5.672 1.5 1.5v7.619c0 .828-.671 1.5-1.5 1.5z" fill="#33363a"/></g></g><g><path d="m91.252 14.134h-5.227c-.829 0-1.5-.672-1.5-1.5s.671-1.5 1.5-1.5h5.227c.829 0 1.5.672 1.5 1.5s-.671 1.5-1.5 1.5z" fill="#33363a"/></g><g><path d="m86.025 17.524c-.829 0-1.5-.672-1.5-1.5v-3.256c0-.828.671-1.5 1.5-1.5s1.5.672 1.5 1.5v3.256c0 .829-.671 1.5-1.5 1.5z" fill="#33363a"/></g><g><path d="m86.03 21.75c-.4 0-.79-.16-1.06-.44-.28-.279-.44-.66-.44-1.06 0-.391.16-.78.43-1.061.56-.55 1.57-.56 2.12 0 .29.28.45.67.45 1.061 0 .399-.16.78-.44 1.06s-.67.44-1.06.44z" fill="#33363a"/></g></g></g><g><g><path d="m52.729 90.351c-.384 0-.768-.146-1.061-.439-.586-.585-.586-1.535 0-2.121l6.021-6.023c.563-.562 1.559-.562 2.122 0l6.022 6.023c.586.586.586 1.535 0 2.121s-1.536.586-2.121 0l-4.962-4.963-4.96 4.963c-.292.292-.677.439-1.061.439z" fill="#33363a"/></g><g><path d="m64.773 90.351c-.384 0-.768-.146-1.061-.439-.586-.585-.586-1.535 0-2.121l6.021-6.023c.562-.562 1.559-.562 2.122 0l6.022 6.023c.586.586.586 1.535 0 2.121s-1.536.586-2.121 0l-4.962-4.962-4.959 4.962c-.293.292-.678.439-1.062.439z" fill="#33363a"/></g><g><path d="m76.816 90.351c-.384 0-.768-.146-1.061-.439-.586-.585-.586-1.535 0-2.121l6.021-6.023c.562-.562 1.559-.562 2.122 0l6.021 6.023c.585.586.585 1.536 0 2.121-.586.586-1.536.586-2.122 0l-4.96-4.962-4.959 4.962c-.294.292-.678.439-1.062.439z" fill="#33363a"/></g><g><path d="m100.901 90.351c-.384 0-.768-.146-1.061-.439l-4.959-4.962-4.962 4.962c-.585.586-1.535.586-2.121 0s-.586-1.535 0-2.121l6.022-6.023c.281-.281.663-.439 1.061-.439.398 0 .78.158 1.061.439l6.021 6.023c.585.586.585 1.536 0 2.121-.294.292-.678.439-1.062.439z" fill="#33363a"/></g></g></g></svg>