<?xml version="1.0" encoding="utf-8"?>
<!-- Generator: Adobe Illustrator 25.4.1, SVG Export Plug-In . SVG Version: 6.00 Build 0)  -->
<svg version="1.1" id="Layer_1" xmlns="http://www.w3.org/2000/svg" xmlns:xlink="http://www.w3.org/1999/xlink" x="0px" y="0px"
	 viewBox="0 0 435.1 425.2" style="enable-background:new 0 0 435.1 425.2;" xml:space="preserve">
<style type="text/css">
	.st0{fill:#8B73B8;stroke:#000000;stroke-width:12;stroke-miterlimit:10;}
	.st1{fill:#D36C81;stroke:#000000;stroke-width:12;stroke-miterlimit:10;}
	.st2{fill:#FFFFFF;stroke:#000000;stroke-width:12;stroke-miterlimit:10;}
	.st3{fill:none;stroke:#000000;stroke-width:12;stroke-miterlimit:10;}
	.st4{fill:#FFFFFF;}
</style>
<g id="Layer_2_00000023989422262801890440000006578283345379900064_">
	<g id="Layer_2-2">
		<path class="st0" d="M129.3,53.3L34.7,13.5c-69.4-19.7,4.1,102.5,8.5,126c0.2,0.8,2.9,13.7-2.7,22.7
			c-90.8,313.1,356.9,338.5,364.7,90.9c3.7-2.2,46-28.2-3.1-51.1c4.1-5.8,51.3-39.6-12-54.7c6.2-15.3,121.3-218.2-69.8-99.8
			c4.2-11.6,15.6-53.7-46.2-9.6c1.9-11.5,3.7-66.8-88.9-1.7C184.3,28.7,174.6-7.1,129.3,53.3z"/>
		<path class="st1" d="M193.8,213.2c-47.1,40.8-127.1,14.4-84.9-82.7l28.4,27.7l22.8,22.2L193.8,213.2z"/>
		<path class="st1" d="M326.1,130.6l-84.9,82.7C288.4,254.1,368.4,227.6,326.1,130.6z"/>
		<path class="st2" d="M81.3,242.7c0,0,108.4,84.1,271.4,2.7C349.9,380.5,80.1,383.6,81.3,242.7z"/>
		<line class="st3" x1="127.8" y1="266.4" x2="127.8" y2="325.8"/>
		<line class="st3" x1="170.8" y1="277.5" x2="170.8" y2="344.1"/>
		<line class="st3" x1="217.2" y1="280.9" x2="217.2" y2="348.2"/>
		<line class="st3" x1="267.2" y1="275.4" x2="267.2" y2="341.9"/>
		<line class="st3" x1="307.9" y1="264.3" x2="307.9" y2="323.3"/>
		<path d="M160.1,180.4c-1.4,40.9-24.6,39.8-24.9-3.1c-0.1-6.4,0.6-12.8,2.1-19.1L160.1,180.4z"/>
		<path class="st4" d="M156,181.2c0.1,6-9.3,6-9.2,0C146.7,175.2,156.1,175.2,156,181.2z"/>
		<path d="M273.9,180.4c1.4,40.9,24.6,39.8,24.9-3.1c0.1-6.4-0.6-12.8-2.1-19.1L273.9,180.4z"/>
		<path class="st4" d="M278,181.2c-0.1,6,9.3,6,9.2,0C287.3,175.2,277.9,175.2,278,181.2z"/>
	</g>
</g>
</svg>
