<svg id="Capa_1" enable-background="new 0 0 512.007 512.007" height="512" viewBox="0 0 512.007 512.007" width="512" xmlns="http://www.w3.org/2000/svg"><g><g><g><path d="m270.247 380.564c.746 61.442 50.396 110.455 111.843 110.448 19.816-.002 38.425-5.164 54.566-14.207 1.812-1.015 3.925-1.354 5.961-.943l51.478 10.383c6.549 1.321 12.072-4.943 9.941-11.275l-17.186-51.076c-.633-1.881-.599-3.921.092-5.782 4.47-12.031 6.933-25.038 6.971-38.616.172-61.124-49.335-111.411-110.454-112.15-62.864-.76-113.976 50.354-113.212 113.218z" fill="#ffd15b"/></g><g><path d="m200.731 21.01c-107.495 1.306-193.244 88.169-193.231 195.672.004 34.669 9.034 67.226 24.855 95.464 1.776 3.17 2.369 6.867 1.65 10.429l-18.164 90.061c-2.311 11.458 8.648 21.121 19.726 17.393l89.359-30.067c3.291-1.107 6.86-1.048 10.116.161 21.049 7.82 43.804 12.13 67.56 12.196 106.938.301 194.917-86.312 196.209-193.243 1.329-109.981-88.096-199.402-198.08-198.066z" fill="#8ac9fe"/></g><g><circle cx="202.26" cy="215.987" fill="#faf7f7" r="127.631"/></g><g><g><path d="m504.035 474.969-17.186-51.076c-.633-1.881-.599-3.921.092-5.782 4.47-12.031 6.933-25.038 6.971-38.616.172-61.124-49.335-111.411-110.454-112.15-5.569-.067-11.043.28-16.399.999 54.696 7.384 97.013 54.632 96.854 111.15-.038 13.578-2.501 26.585-6.971 38.616-.691 1.861-.725 3.901-.092 5.782l17.186 51.076c.854 2.537.464 5.054-.713 7.086l20.771 4.189c6.549 1.322 12.072-4.942 9.941-11.274z" fill="#ffc344"/></g></g><g><g><path d="m105.042 400.124c-3.255-1.209-6.824-1.269-10.116-.161l-75.777 25.497c3.799 4.453 10.087 6.7 16.418 4.57l79.116-26.621c-3.249-1.017-6.467-2.106-9.641-3.285z" fill="#60b7ff"/></g><g><path d="m200.731 21.01c-4.238.051-8.438.251-12.605.565 101.858 7.705 181.943 93.382 180.685 197.503-1.229 101.703-80.877 185.02-180.67 192.665 4.775.363 9.596.565 14.461.578 106.938.301 194.917-86.312 196.209-193.243 1.329-109.983-88.096-199.404-198.08-198.068z" fill="#60b7ff"/></g></g><g><path d="m202.26 88.356c-5.076 0-10.079.306-15 .882 63.419 7.426 112.631 61.336 112.631 126.749s-49.213 119.323-112.631 126.749c4.921.576 9.924.882 15 .882 70.489 0 127.631-57.142 127.631-127.631s-57.143-127.631-127.631-127.631z" fill="#f0eef0"/></g><g><path d="m207.91 299.639h-11.3c-6.513 0-11.793-5.28-11.793-11.793v-75.103c0-6.513 5.28-11.793 11.793-11.793h11.3c6.513 0 11.793 5.28 11.793 11.793v75.103c0 6.513-5.28 11.793-11.793 11.793z" fill="#8ac9fe"/></g><g><circle cx="202.26" cy="153.7" fill="#8ac9fe" r="21.365"/></g></g><g><path d="m511.144 472.577-17.186-51.075c-.084-.251-.079-.527.014-.779 4.898-13.183 7.401-27.047 7.441-41.207.039-13.801-2.287-27.356-6.911-40.289-1.395-3.9-5.686-5.932-9.587-4.537-3.9 1.395-5.931 5.687-4.537 9.587 4.039 11.294 6.069 23.136 6.035 35.197-.035 12.385-2.222 24.506-6.501 36.025-1.286 3.46-1.346 7.29-.17 10.786l17.186 51.076c.054.159.217.645-.233 1.155s-.951.409-1.117.376l-51.478-10.382c-3.785-.763-7.731-.141-11.11 1.752-15.467 8.666-33.068 13.248-50.901 13.25-.004 0-.008 0-.013 0-24.067 0-47.512-8.306-66.016-23.388-17.49-14.256-29.927-33.989-35.286-55.818 55.518-23.145 98.823-70.283 116.667-128.352.088.017.174.04.264.054 27.391 4.147 52.515 19.534 68.93 42.214 1.467 2.027 3.758 3.103 6.082 3.103 1.523 0 3.062-.463 4.391-1.425 3.355-2.428 4.107-7.117 1.678-10.473-18.484-25.539-46.656-42.98-77.464-48.025 3.09-13.62 4.814-27.746 4.989-42.235.667-55.23-20.462-107.142-59.495-146.172s-90.965-60.147-146.176-59.485c-53.973.656-104.466 22.05-142.177 60.243-37.707 38.187-58.47 88.948-58.463 142.931.004 34.719 8.93 68.998 25.812 99.129.904 1.613 1.203 3.488.841 5.28l-18.164 90.061c-1.622 8.039 1.083 16.076 7.234 21.5 4.24 3.738 9.505 5.696 14.914 5.696 2.438 0 4.907-.398 7.322-1.211l89.36-30.068c1.653-.556 3.467-.527 5.111.083 22.438 8.337 46.041 12.598 70.151 12.666.196 0 .379.001.575.001 22.128-.001 43.466-3.602 63.466-10.231 6.355 24.302 20.408 46.223 39.961 62.161 21.174 17.258 47.981 26.761 75.493 26.761h.015c20.394-.002 40.53-5.246 58.231-15.164.252-.141.538-.189.812-.134l51.478 10.382c5.729 1.156 11.465-.772 15.334-5.159 3.867-4.388 5.063-10.317 3.198-15.86zm-307.988-67.756c-.175 0-.357 0-.533-.001-22.335-.063-44.194-4.008-64.969-11.727-4.852-1.803-10.222-1.887-15.119-.239l-89.359 30.067c-3.798 1.277-6.532-.637-7.532-1.519s-3.242-3.357-2.45-7.283l18.164-90.061c1.07-5.305.197-10.838-2.459-15.578-15.631-27.897-23.896-59.64-23.899-91.798-.006-50.011 19.22-97.028 54.137-132.39 34.919-35.365 81.687-55.175 131.686-55.782.79-.01 1.574-.014 2.363-.014 50.27 0 97.432 19.517 133.024 55.107 36.151 36.149 55.72 84.229 55.102 135.384-1.24 102.582-85.592 185.834-188.156 185.834z"/><path d="m207.91 193.449h-11.3c-10.639 0-19.293 8.655-19.293 19.293v75.103c0 10.638 8.655 19.293 19.293 19.293h11.3c10.638 0 19.293-8.655 19.293-19.293v-75.103c0-10.638-8.655-19.293-19.293-19.293zm4.293 94.397c0 2.367-1.926 4.293-4.293 4.293h-11.3c-2.367 0-4.293-1.926-4.293-4.293v-75.103c0-2.367 1.926-4.293 4.293-4.293h11.3c2.367 0 4.293 1.926 4.293 4.293z"/><path d="m202.26 124.836c-15.916 0-28.864 12.948-28.864 28.864s12.948 28.865 28.864 28.865 28.865-12.948 28.865-28.865-12.949-28.864-28.865-28.864zm0 42.729c-7.645 0-13.864-6.219-13.864-13.865s6.22-13.865 13.864-13.865c7.645 0 13.865 6.219 13.865 13.865s-6.22 13.865-13.865 13.865z"/><path d="m202.26 80.857c-49.36 0-94.786 26.908-118.55 70.224-1.992 3.632-.663 8.191 2.968 10.183 3.632 1.993 8.19.663 10.183-2.968 21.129-38.514 61.515-62.439 105.398-62.439 66.24 0 120.131 53.89 120.131 120.131s-53.89 120.13-120.13 120.13-120.131-53.89-120.131-120.131c0-9.446 1.099-18.849 3.267-27.949.96-4.029-1.529-8.074-5.558-9.034-4.028-.959-8.074 1.529-9.034 5.558-2.438 10.237-3.675 20.81-3.675 31.425 0 74.511 60.62 135.131 135.131 135.131s135.131-60.619 135.131-135.131-60.62-135.13-135.131-135.13z"/></g></g></svg>