<svg xmlns="http://www.w3.org/2000/svg" enable-background="new 0 0 526.6 500.9" viewBox="0 0 526.6 500.9" id="maya"><g><linearGradient id="a" x1="257.088" x2="556.451" y1="288.8" y2="346.99" gradientTransform="matrix(1 0 0 -1 0 515.086)" gradientUnits="userSpaceOnUse"><stop offset="0" stop-color="#0f6067"></stop><stop offset=".5" stop-color="#05abac"></stop><stop offset="1" stop-color="#58bec4"></stop></linearGradient><path fill="url(#a)" d="M368.6,14.6h158.1L315.4,404.9c0,0-35.6-103.4-50.9-140.3"></path><g><linearGradient id="b" x1="466.637" x2="509.441" y1="12.695" y2="501.943" gradientTransform="matrix(1 0 0 -1 0 515.086)" gradientUnits="userSpaceOnUse"><stop offset="0" stop-color="#117c83"></stop><stop offset=".5" stop-color="#21b5b5"></stop><stop offset="1" stop-color="#7ed4d4"></stop></linearGradient><path fill="url(#b)" d="M407.6,497.2h119.1V14.6C526.6,266.8,420.6,497.2,407.6,497.2z"></path></g><linearGradient id="c" x1="218.957" x2="106.02" y1="493.828" y2="146.246" gradientTransform="matrix(1 0 0 -1 0 515.086)" gradientUnits="userSpaceOnUse"><stop offset="0" stop-color="#9accd3"></stop><stop offset=".5" stop-color="#72aeb3"></stop><stop offset="1" stop-color="#317d7f"></stop></linearGradient><path fill="url(#c)" d="M315.4,404.9h-98.3L0,14.6C38.5,9.7,115.4,3.1,153.5,0L315.4,404.9z"></path><linearGradient id="d" x1="-26.925" x2="162.603" y1="97.049" y2="158.63" gradientTransform="matrix(1 0 0 -1 0 515.086)" gradientUnits="userSpaceOnUse"><stop offset="0" stop-color="#21626e"></stop><stop offset=".5" stop-color="#157c84"></stop><stop offset="1" stop-color="#03a3a5"></stop></linearGradient><path fill="url(#d)" d="M125.9,250.8C93.3,379.6-0.1,501,0,500.9c108.2,0,131.5-15.7,131.5-24c0-4.6,0-148.3,0-216.3   C129.6,257.4,127.8,254.1,125.9,250.8z"></path><linearGradient id="e" x1="121.268" x2="-121.268" y1="370.396" y2="144.227" gradientTransform="matrix(1 0 0 -1 0 515.086)" gradientUnits="userSpaceOnUse"><stop offset="0" stop-color="#0b7c81"></stop><stop offset=".5" stop-color="#068d90"></stop><stop offset="1" stop-color="#16b1b1"></stop></linearGradient><path fill="url(#e)" d="M0,14.6v486.3c59.2-97.8,93.7-161.8,124.2-253C49,114.9,0,14.6,0,14.6z"></path><linearGradient id="f" x1="345.574" x2="469.538" y1="94.405" y2="194.789" gradientTransform="matrix(1 0 0 -1 0 515.086)" gradientUnits="userSpaceOnUse"><stop offset="0" stop-color="#0a8a8f"></stop><stop offset=".5" stop-color="#0f7c82"></stop><stop offset="1" stop-color="#1a5964"></stop></linearGradient><polyline fill="url(#f)" points="399.4 478.1 407.6 497.2 407.6 243.8 399.4 257.5"></polyline><linearGradient id="g" x1="533.274" x2="401.471" y1="217.794" y2="300.154" gradientTransform="matrix(1 0 0 -1 0 515.086)" gradientUnits="userSpaceOnUse"><stop offset="0" stop-color="#256a77"></stop><stop offset=".5" stop-color="#0d9499"></stop><stop offset="1" stop-color="#06a0a2"></stop></linearGradient><path fill="url(#g)" d="M407.2,244.3v252.1l0.3,0.8c8.5,0,119.1-272.8,119.1-482.6C526.6,14.6,459.1,155.4,407.2,244.3z"></path></g></svg>