<svg id="Layer_1" enable-background="new 0 0 24 24" viewBox="0 0 24 24" xmlns="http://www.w3.org/2000/svg"><g><g><g><path d="m12 23.5c-4.962 0-9-1.794-9-4 0-.396.102-1.134.784-1.635.18-.132.408-.275.66-.433.118-.073.242-.151.369-.232-.079.047-.168.071-.257.071-.103 0-.205-.032-.292-.094-2.105-1.515-3.264-3.531-3.264-5.677 0-4.411 4.935-8 11-8s11 3.589 11 8c0 2.149-1.162 4.167-3.271 5.683-.087.063-.189.094-.292.094-.092 0-.185-.025-.266-.077-.145-.091-.291-.186-.435-.284.273.187.545.354.788.502.282.173.512.315.692.447.682.495.784 1.237.784 1.635 0 2.206-4.038 4-9 4z" fill="#fabc3d"/></g></g><g><g><g><path d="m18.372 16.674c-.205.174-.416.346-.643.509-.087.063-.189.094-.292.094-.086 0-.17-.027-.248-.071.111.07.232.15.335.213.282.173.512.315.692.447.682.495.784 1.237.784 1.635 0 2.055-3.507 3.752-8 3.974.329.016.662.026 1 .026 4.962 0 9-1.794 9-4 0-.398-.102-1.14-.784-1.635-.18-.131-.41-.273-.692-.447-.103-.063-.223-.144-.335-.213.077.044.162.071.248.071.103 0 .205-.031.292-.094.077-.055.143-.116.217-.172-.619-.037-1.426.076-1.574-.337z" fill="#e6e6e6"/></g></g></g><g><g><path d="m23 11.5c0-4.411-4.935-8-11-8-.338 0-.67.015-1 .037 5.598.369 10 3.797 10 7.963 0 1.918-.93 3.728-2.628 5.174.148.414.955.3 1.575.337 1.965-1.496 3.053-3.44 3.053-5.511z" fill="#e1aa37"/></g></g><g><g><ellipse cx="7" cy="10" fill="#fff" rx="3" ry="2.5"/></g></g><g><g><ellipse cx="17" cy="10" fill="#fff" rx="3" ry="2.5"/></g></g><g><g><path d="m17 14.5c0 1.708 2.274 2.681 3.216 3.365.574.417.784 1.053.784 1.635 0 2.209-4.029 4-9 4s-9-1.791-9-4c0-.583.212-1.216.784-1.635.938-.689 3.216-1.698 3.216-3.365 0 0 1.417-2.5 5-2.5s5 2.5 5 2.5z" fill="#fbe158"/></g></g><g><g><path d="m20.216 17.865c-.941-.684-3.216-1.656-3.216-3.365 0 0-1.417-2.5-5-2.5-.357 0-.686.03-1 .075 2.845.403 4 2.425 4 2.425 0 1.708 2.274 2.681 3.216 3.365.574.417.784 1.053.784 1.635 0 2.059-3.501 3.753-8 3.974.329.016.662.026 1 .026 4.971 0 9-1.791 9-4 0-.583-.21-1.218-.784-1.635z" fill="#e2cb4f"/></g></g><g id="Psyduck"><g><g><path d="m19.542 17.824c-.16 0-.316-.076-.413-.217-.156-.228-.098-.539.13-.695 2.09-1.432 3.241-3.353 3.241-5.411 0-4.136-4.71-7.5-10.5-7.5s-10.5 3.364-10.5 7.5c0 2.058 1.151 3.979 3.241 5.411.228.156.286.467.13.695-.157.227-.466.286-.695.13-2.336-1.6-3.676-3.873-3.676-6.236 0-4.687 5.159-8.5 11.5-8.5s11.5 3.813 11.5 8.5c0 2.363-1.34 4.636-3.676 6.236-.086.058-.185.087-.282.087z" fill="#31395a"/></g></g><g><g><path d="m12 24c-5.327 0-9.5-1.977-9.5-4.5 0-.834.36-1.577.988-2.038.195-.143.445-.3.721-.472.967-.604 2.291-1.432 2.291-2.49 0-.276.224-.5.5-.5s.5.224.5.5c0 1.612-1.662 2.651-2.761 3.338-.252.157-.481.299-.659.43-.505.371-.58.931-.58 1.232 0 1.69 3.416 3.5 8.5 3.5s8.5-1.81 8.5-3.5c0-.303-.075-.866-.578-1.23-.178-.13-.408-.27-.66-.425-1.1-.675-2.762-1.696-2.762-3.345 0-.276.224-.5.5-.5s.5.224.5.5c0 1.089 1.321 1.9 2.286 2.493.277.17.528.325.724.467.629.457.99 1.201.99 2.04 0 2.523-4.173 4.5-9.5 4.5z" fill="#31395a"/></g></g><g><g><path d="m11 15c-.04 0-.081-.005-.122-.015l-2-.5c-.268-.067-.431-.338-.364-.606.066-.269.335-.432.606-.364l2 .5c.268.067.431.338.364.606-.056.228-.259.379-.484.379z" fill="#31395a"/></g></g><g><g><path d="m13 15c-.224 0-.428-.151-.484-.379-.067-.268.096-.539.364-.606l2-.5c.267-.067.539.095.606.364.067.268-.096.539-.364.606l-2 .5c-.041.01-.082.015-.122.015z" fill="#31395a"/></g></g><g><g><path d="m7 13c-1.93 0-3.5-1.346-3.5-3s1.57-3 3.5-3 3.5 1.346 3.5 3-1.57 3-3.5 3zm0-5c-1.378 0-2.5.897-2.5 2s1.122 2 2.5 2 2.5-.897 2.5-2-1.122-2-2.5-2z" fill="#31395a"/></g></g><g><g><path d="m17 13c-1.93 0-3.5-1.346-3.5-3s1.57-3 3.5-3 3.5 1.346 3.5 3-1.57 3-3.5 3zm0-5c-1.378 0-2.5.897-2.5 2s1.122 2 2.5 2 2.5-.897 2.5-2-1.122-2-2.5-2z" fill="#31395a"/></g></g><g><g><circle cx="7" cy="10.5" fill="#31395a" r=".5"/></g></g><g><g><circle cx="17" cy="10.5" fill="#31395a" r=".5"/></g></g><g><g><path d="m12 4c-.276 0-.5-.224-.5-.5v-3c0-.276.224-.5.5-.5s.5.224.5.5v3c0 .276-.224.5-.5.5z" fill="#31395a"/></g></g><g><g><path d="m14 4c-.052 0-.105-.008-.158-.026-.262-.087-.403-.37-.316-.632l1-3c.087-.262.367-.404.632-.316.262.087.403.37.316.632l-1 3c-.07.21-.265.342-.474.342z" fill="#31395a"/></g></g><g><g><path d="m10 4c-.209 0-.404-.132-.474-.342l-1-3c-.087-.262.054-.545.316-.632.264-.088.545.054.632.316l1 3c.087.262-.054.545-.316.632-.053.018-.106.026-.158.026z" fill="#31395a"/></g></g></g></g></svg>