<svg version="1.1" id="Capa_1" xmlns="http://www.w3.org/2000/svg" xmlns:xlink="http://www.w3.org/1999/xlink" x="0px" y="0px" viewBox="0 0 512 512" style="enable-background:new 0 0 512 512;" xml:space="preserve">
<g>
	<g>
		<path style="fill:#FFE177;" d="M404.682,7.5h-225.65c-13.353,0-24.177,10.825-24.177,24.177v184.664&#10;&#9;&#9;&#9;c0,13.353,10.825,24.177,24.177,24.177h39.66c6.967,0,12.113,6.573,10.364,13.316c-2.726,10.514-7.019,19.557-11.122,26.539&#10;&#9;&#9;&#9;c-4.045,6.884,1.702,15.356,9.607,14.239c22.644-3.199,56.761-13.481,65.341-46.152c1.239-4.72,5.605-7.944,10.485-7.944h101.315&#10;&#9;&#9;&#9;c13.353,0,24.177-10.825,24.177-24.177V31.677C428.859,18.325,418.035,7.5,404.682,7.5z"/>
		<path style="fill:#FFD15B;" d="M404.682,7.5h-58.005c26.431,26.528,42.771,63.115,42.771,103.521&#10;&#9;&#9;&#9;c0,56.094-31.494,104.826-77.76,129.498h92.994c13.353,0,24.177-10.825,24.177-24.177V31.677&#10;&#9;&#9;&#9;C428.859,18.324,418.035,7.5,404.682,7.5z"/>
		<path style="fill:#FFCEBF;" d="M108.836,359.525v-89.054c0-9.246,7.496-16.742,16.742-16.742l0,0&#10;&#9;&#9;&#9;c9.247,0,16.742,7.496,16.742,16.742v89.054H108.836z"/>
		<path style="fill:#FFDFCF;" d="M122.13,498.569v-24.09c-4.193-1.505-8.363-3.481-12.363-6.053&#10;&#9;&#9;&#9;c-25.581-16.445-28.521-46.745-25.777-61.451l6.619-35.479c0.999-5.353,4.757-9.777,9.879-11.628l33.686-12.171&#10;&#9;&#9;&#9;c5.614-2.029,11.499,2.356,11.105,8.313c-0.427,6.462-2.208,14.522-7.454,21.604l104.949-13.756v70.045&#10;&#9;&#9;&#9;c0,18.182-11.315,33.711-27.283,39.959v24.707c0,3.276-2.655,5.931-5.931,5.931h-81.499&#10;&#9;&#9;&#9;C124.785,504.5,122.13,501.845,122.13,498.569z"/>
		<path style="fill:#FFCEBF;" d="M226.031,402.701L226.031,402.701c9.246,0,16.742-7.496,16.742-16.742v-33.02&#10;&#9;&#9;&#9;c0-9.246-7.496-16.742-16.742-16.742l0,0c-9.247,0-16.742,7.496-16.742,16.742v33.02&#10;&#9;&#9;&#9;C209.289,395.206,216.785,402.701,226.031,402.701z"/>
		<path style="fill:#FFCEBF;" d="M192.491,397.314h0.113c9.215,0,16.686-7.47,16.686-16.686v-34.749&#10;&#9;&#9;&#9;c0-9.215-7.47-16.686-16.686-16.686h-0.113c-9.215,0-16.686,7.47-16.686,16.686v34.749&#10;&#9;&#9;&#9;C175.805,389.843,183.275,397.314,192.491,397.314z"/>
		<path style="fill:#FFCEBF;" d="M159.006,386h0.113c9.215,0,16.686-7.47,16.686-16.686v-33.671c0-9.215-7.47-16.686-16.686-16.686&#10;&#9;&#9;&#9;h-0.113c-9.215,0-16.686,7.47-16.686,16.686v33.671C142.32,378.529,149.791,386,159.006,386z"/>
		<path style="fill:#EFDDB2;" d="M121.275,352.357l12.898-4.66c3.259-1.178,6.601-0.186,8.761,2.012l-21.808,2.858&#10;&#9;&#9;&#9;C121.179,352.498,121.225,352.427,121.275,352.357z"/>
		<circle style="fill:#FBF7F7;" cx="291.857" cy="124.01" r="74.433"/>
	</g>
	<g>
		<path style="fill:none;stroke:#000000;stroke-width:15;stroke-linecap:round;stroke-linejoin:round;stroke-miterlimit:10;" d="&#10;&#9;&#9;&#9;M108.836,321.355v-50.883c0-9.246,7.496-16.742,16.742-16.742l0,0c9.247,0,16.742,7.496,16.742,16.742v65.228"/>
		<g>
			<path style="fill:none;stroke:#000000;stroke-width:15;stroke-linecap:round;stroke-linejoin:round;stroke-miterlimit:10;" d="&#10;&#9;&#9;&#9;&#9;M209.663,7.5h-30.632c-13.353,0-24.177,10.825-24.177,24.177v184.664c0,13.353,10.825,24.177,24.177,24.177h39.66&#10;&#9;&#9;&#9;&#9;c6.967,0,12.113,6.573,10.364,13.316c-2.726,10.514-7.019,19.557-11.122,26.539c-4.045,6.884,1.702,15.356,9.607,14.239&#10;&#9;&#9;&#9;&#9;c22.644-3.199,56.761-13.481,65.341-46.152c1.239-4.72,5.605-7.944,10.485-7.944h101.315c13.353,0,24.177-10.825,24.177-24.177&#10;&#9;&#9;&#9;&#9;V31.677c0-13.353-10.825-24.177-24.177-24.177h-159.9"/>
			<path style="fill:none;stroke:#000000;stroke-width:15;stroke-linecap:round;stroke-linejoin:round;stroke-miterlimit:10;" d="&#10;&#9;&#9;&#9;&#9;M215.491,473.862v24.707c0,3.276-2.655,5.931-5.931,5.931h-81.499c-3.276,0-5.931-2.655-5.931-5.931v-24.09"/>
			<path style="fill:none;stroke:#000000;stroke-width:15;stroke-linecap:round;stroke-linejoin:round;stroke-miterlimit:10;" d="&#10;&#9;&#9;&#9;&#9;M206.654,476.275c20.471-3.253,36.119-20.985,36.119-42.372v-43.414"/>
			<path style="fill:none;stroke:#000000;stroke-width:15;stroke-linecap:round;stroke-linejoin:round;stroke-miterlimit:10;" d="&#10;&#9;&#9;&#9;&#9;M226.031,402.701L226.031,402.701c9.246,0,16.742-7.496,16.742-16.742v-33.02c0-9.246-7.496-16.742-16.742-16.742l0,0&#10;&#9;&#9;&#9;&#9;c-9.247,0-16.742,7.496-16.742,16.742v33.02C209.289,395.206,216.785,402.701,226.031,402.701z"/>
			<path style="fill:none;stroke:#000000;stroke-width:15;stroke-linecap:round;stroke-linejoin:round;stroke-miterlimit:10;" d="&#10;&#9;&#9;&#9;&#9;M192.491,397.314h0.113c9.215,0,16.686-7.47,16.686-16.686v-34.749c0-9.215-7.47-16.686-16.686-16.686h-0.113&#10;&#9;&#9;&#9;&#9;c-9.215,0-16.686,7.47-16.686,16.686v34.749C175.805,389.843,183.275,397.314,192.491,397.314z"/>
			<path style="fill:none;stroke:#000000;stroke-width:15;stroke-linecap:round;stroke-linejoin:round;stroke-miterlimit:10;" d="&#10;&#9;&#9;&#9;&#9;M142.47,371.503c1.097,8.185,8.108,14.497,16.593,14.497h0c9.246,0,16.742-7.496,16.742-16.742v-33.559&#10;&#9;&#9;&#9;&#9;c0-9.246-7.496-16.742-16.742-16.742h0c-9.246,0-16.742,7.496-16.742,16.742v10.191"/>
			<path style="fill:none;stroke:#000000;stroke-width:15;stroke-linecap:round;stroke-linejoin:round;stroke-miterlimit:10;" d="&#10;&#9;&#9;&#9;&#9;M133.953,473.995c-8.375,0-20.157-3.043-24.186-5.569c-25.768-16.15-28.521-46.745-25.777-61.451l6.619-35.479&#10;&#9;&#9;&#9;&#9;c0.999-5.353,4.757-9.777,9.879-11.628l33.686-12.171c5.615-2.029,11.499,2.356,11.106,8.313&#10;&#9;&#9;&#9;&#9;c-0.738,11.172-5.5,27.125-25.277,34.535c-2.219,0.831-3.833,2.777-4.268,5.106l0,0c-0.696,3.731,1.798,7.293,5.536,7.949&#10;&#9;&#9;&#9;&#9;c8.846,1.553,24.425,5.908,35.683,17.968"/>
			
				<circle style="fill:none;stroke:#000000;stroke-width:15;stroke-linecap:round;stroke-linejoin:round;stroke-miterlimit:10;" cx="291.857" cy="124.01" r="74.433"/>
			<path style="fill:none;stroke:#000000;stroke-width:15;stroke-linecap:round;stroke-linejoin:round;stroke-miterlimit:10;" d="&#10;&#9;&#9;&#9;&#9;M270.73,100.761c1.46-10.463,10.547-18.483,21.462-18.263c11.042,0.222,20.189,9.066,20.761,20.095&#10;&#9;&#9;&#9;&#9;c0.634,12.222-9.101,22.358-21.199,22.358v14.597"/>
			
				<line style="fill:none;stroke:#000000;stroke-width:15;stroke-linecap:round;stroke-linejoin:round;stroke-miterlimit:10;" x1="291.857" y1="163.095" x2="291.857" y2="165.525"/>
		</g>
	</g>
</g>
<g>
</g>
<g>
</g>
<g>
</g>
<g>
</g>
<g>
</g>
<g>
</g>
<g>
</g>
<g>
</g>
<g>
</g>
<g>
</g>
<g>
</g>
<g>
</g>
<g>
</g>
<g>
</g>
<g>
</g>
</svg>